<?xml version="1.0" standalone="no"?>
<!DOCTYPE svg PUBLIC "-//W3C//DTD SVG 20010904//EN"
 "http://www.w3.org/TR/2001/REC-SVG-20010904/DTD/svg10.dtd">
<svg version="1.0" xmlns="http://www.w3.org/2000/svg"
 width="600.000000pt" height="600.000000pt" viewBox="0 0 600.000000 600.000000"
 preserveAspectRatio="xMidYMid meet">
<metadata>
Created by potrace 1.14, written by Peter Selinger 2001-2017
</metadata>
<g transform="translate(0.000000,600.000000) scale(0.100000,-0.100000)"
fill="#000000" stroke="none">
<path d="M3160 5893 c-8 -2 -22 -7 -30 -10 -8 -4 -17 -7 -20 -8 -9 -3 -65 -26
-92 -38 -15 -6 -24 -15 -22 -19 3 -4 -1 -5 -9 -2 -8 3 -20 -2 -27 -10 -7 -9
-16 -13 -21 -10 -5 3 -9 0 -9 -7 0 -7 -3 -10 -6 -6 -8 8 -91 -44 -138 -87 -21
-20 -43 -36 -48 -36 -6 0 -7 -7 -4 -16 3 -8 2 -13 -3 -9 -5 3 -17 -3 -27 -12
-9 -9 -22 -18 -28 -19 -6 -1 -40 -4 -76 -8 -69 -6 -100 -11 -130 -21 -10 -3
-29 -8 -41 -10 -12 -3 -66 -19 -118 -37 -53 -18 -99 -31 -103 -30 -5 1 -8 -3
-8 -9 0 -5 -4 -8 -9 -4 -5 3 -12 1 -16 -5 -4 -6 -11 -8 -16 -5 -5 4 -9 1 -9
-5 0 -6 -4 -8 -10 -5 -5 3 -10 2 -10 -2 0 -5 -8 -9 -17 -10 -10 -1 -39 -11
-66 -22 -26 -11 -48 -20 -50 -19 -1 0 -29 -13 -62 -29 -33 -16 -96 -47 -140
-69 -44 -21 -82 -41 -85 -44 -3 -3 -19 -13 -36 -22 -29 -16 -31 -16 -43 1 -8
10 -29 24 -47 31 -19 8 -34 18 -34 24 0 5 -3 6 -7 3 -3 -4 -16 -1 -27 6 -18
12 -60 27 -91 33 -5 1 -13 3 -17 4 -5 1 -17 4 -28 5 -11 1 -21 3 -22 5 -9 7
-50 5 -55 -3 -3 -5 -9 -3 -14 4 -6 10 -9 10 -9 2 0 -7 -7 -10 -15 -7 -16 7
-125 -43 -125 -57 0 -5 -3 -8 -7 -8 -20 3 -26 -2 -13 -11 13 -8 13 -10 -1 -10
-9 0 -24 -9 -35 -21 -18 -20 -18 -20 20 2 21 12 57 24 79 25 23 2 47 6 54 8 7
3 13 2 13 -2 0 -4 19 -8 43 -9 52 -2 64 -5 155 -38 78 -29 94 -51 37 -50 -19
0 -35 3 -35 7 0 4 -11 3 -24 -2 -13 -5 -27 -6 -30 -3 -3 3 -12 0 -20 -6 -8 -7
-20 -10 -26 -6 -5 3 -16 3 -22 -2 -7 -4 -17 -8 -23 -8 -30 -3 -64 -18 -59 -27
4 -6 -2 -8 -15 -3 -11 3 -21 2 -21 -3 0 -6 -14 -15 -30 -21 -17 -5 -30 -15
-30 -21 0 -6 -5 -8 -10 -5 -6 3 -13 -1 -16 -9 -3 -9 -9 -14 -13 -11 -4 2 -18
-6 -32 -18 -13 -12 -39 -34 -57 -50 -19 -15 -31 -27 -28 -27 3 0 -2 -8 -12
-19 -9 -10 -28 -33 -42 -51 -14 -18 -36 -44 -50 -59 -29 -31 -120 -95 -120
-85 0 3 -7 0 -17 -7 -9 -8 -18 -13 -19 -12 -2 1 -18 -4 -36 -12 -18 -7 -36
-11 -40 -9 -5 3 -8 1 -8 -5 0 -5 -11 -8 -25 -6 -14 1 -25 -1 -25 -4 0 -4 -36
-6 -81 -6 -44 0 -83 -3 -86 -8 -6 -10 84 -50 122 -54 75 -8 175 -4 175 7 0 3
14 5 30 5 35 1 36 -2 10 -35 -11 -14 -20 -31 -20 -38 0 -7 -7 -15 -15 -18 -8
-4 -13 -9 -11 -13 2 -3 -4 -23 -15 -45 -10 -21 -21 -57 -24 -80 -4 -22 -10
-57 -14 -77 -8 -37 -5 -103 6 -129 3 -8 7 -17 7 -20 1 -3 7 -15 14 -26 6 -12
9 -24 5 -27 -3 -4 2 -9 11 -13 9 -3 14 -10 11 -14 -7 -12 93 -113 104 -106 5
3 14 -1 21 -9 7 -8 17 -15 23 -15 5 0 -2 9 -17 21 -14 11 -26 26 -26 34 0 7
-7 16 -16 19 -9 4 -14 13 -10 21 3 8 2 15 -2 15 -11 0 -35 95 -38 143 -2 45 4
47 17 7 6 -16 15 -30 20 -30 5 0 9 -5 9 -11 0 -7 9 -20 20 -29 11 -10 26 -41
33 -69 6 -28 15 -51 19 -51 5 0 8 -8 8 -17 0 -24 67 -131 107 -171 37 -38 45
-24 18 28 -9 17 -13 30 -9 30 4 0 1 7 -6 15 -6 8 -9 19 -6 24 4 5 3 12 -2 15
-4 2 -6 49 -4 103 4 135 5 143 13 143 4 0 12 13 17 29 8 23 15 28 31 24 11 -3
29 -2 38 2 10 5 23 9 28 11 6 1 28 10 50 20 22 10 43 17 48 16 4 -1 7 2 7 8 0
5 7 10 15 10 8 0 15 5 15 12 0 8 3 9 10 2 7 -7 3 -31 -11 -74 -11 -34 -21 -71
-22 -82 -1 -10 -4 -18 -8 -18 -4 0 -11 -15 -14 -32 -4 -18 -15 -42 -24 -52 -9
-11 -11 -17 -5 -13 6 3 1 -13 -11 -37 -12 -24 -25 -53 -28 -65 -3 -12 -6 -24
-7 -26 0 -3 -7 -20 -16 -40 -8 -19 -11 -35 -8 -35 4 0 2 -6 -4 -13 -6 -7 -13
-26 -16 -42 -2 -17 -5 -30 -6 -30 -2 0 -4 -9 -6 -20 -1 -11 -10 -44 -18 -74
-8 -30 -13 -58 -10 -63 3 -4 -3 -8 -13 -9 -10 0 -13 -3 -6 -5 7 -3 9 -13 6
-22 -3 -9 8 -2 23 17 77 90 104 127 104 139 0 7 4 11 8 8 5 -3 17 9 28 27 l19
32 5 -50 c3 -27 1 -53 -3 -56 -12 -9 -11 -21 3 -29 9 -5 9 -13 2 -27 -8 -14
-7 -27 3 -46 12 -23 11 -25 -3 -20 -11 5 -13 3 -7 -7 5 -8 10 -52 11 -99 2
-48 6 -104 9 -126 3 -22 8 -70 10 -107 2 -37 7 -84 10 -105 4 -21 8 -58 10
-83 2 -25 4 -47 5 -50 1 -3 2 -24 2 -47 0 -24 5 -43 10 -43 5 0 6 -6 1 -12
-10 -18 -13 -33 -15 -110 -2 -38 -5 -68 -8 -68 -3 0 -6 -17 -6 -38 -1 -20 -4
-72 -7 -114 -3 -63 -2 -78 10 -78 8 0 11 5 8 10 -3 6 -2 10 4 10 9 0 37 68 33
83 -1 4 2 7 7 7 10 0 27 39 23 53 -1 4 2 7 7 7 9 0 30 62 33 98 1 6 5 12 10
12 4 0 8 10 8 23 0 13 3 27 7 31 4 3 8 17 10 29 7 51 16 50 33 -5 11 -31 33
-88 51 -125 18 -37 33 -72 33 -76 1 -4 7 -11 14 -16 8 -5 13 -12 11 -16 -2 -7
8 -23 46 -73 21 -28 48 -41 40 -19 -6 15 -14 80 -21 164 -4 42 -1 63 7 69 7 4
10 3 5 -4 -3 -6 -1 -14 6 -19 7 -4 19 -20 27 -35 8 -15 18 -25 23 -22 4 3 8 0
8 -6 0 -6 32 -41 71 -79 39 -38 71 -73 71 -77 -1 -11 44 -59 89 -96 30 -25 67
-45 170 -92 27 -13 41 -29 59 -69 13 -29 35 -70 48 -92 54 -87 77 -120 85
-123 4 -2 7 -8 7 -12 0 -15 48 -62 58 -56 4 2 7 46 6 96 l-2 91 27 -17 c27
-17 64 -56 91 -93 8 -12 19 -21 26 -21 14 0 34 -44 34 -75 0 -13 5 -27 10 -30
6 -4 8 -10 5 -16 -9 -13 6 -79 17 -79 6 0 7 7 4 16 -3 8 -2 13 3 10 9 -6 26
58 22 82 -1 6 3 12 9 12 5 0 10 9 10 20 0 30 12 24 40 -20 13 -22 28 -40 32
-40 4 0 8 -6 9 -12 0 -7 27 -35 60 -63 33 -27 68 -58 77 -67 9 -10 22 -18 28
-18 17 0 24 -38 9 -44 -8 -3 -13 -19 -13 -36 2 -47 13 -44 -207 -56 -66 -3
-123 -10 -126 -16 -4 -7 -8 -6 -10 1 -4 11 -473 22 -481 11 -2 -3 -23 -28 -46
-56 -23 -29 -42 -56 -42 -62 0 -6 -3 -12 -7 -14 -10 -4 -83 -115 -83 -126 0
-26 -99 -87 -175 -107 -16 -5 -33 -9 -37 -10 -5 -2 -9 -3 -10 -5 -2 -1 -12 -3
-23 -5 -95 -18 -173 -43 -195 -64 -216 -202 -310 -315 -294 -355 3 -8 22 -27
42 -42 19 -15 32 -21 27 -13 -7 11 -6 12 7 2 8 -7 17 -11 20 -8 2 3 15 -6 28
-20 13 -14 19 -25 13 -25 -11 0 -28 -76 -27 -117 1 -13 -3 -23 -7 -23 -5 0 -8
-10 -8 -22 1 -13 -1 -63 -5 -111 -5 -66 -3 -86 5 -81 8 5 9 3 3 -7 -14 -22
-15 -222 -1 -231 7 -5 8 -8 1 -8 -5 0 -9 -16 -8 -37 1 -21 3 -48 3 -60 l1 -23
2240 0 c1232 0 2240 4 2240 8 0 5 -3 12 -7 16 -4 3 -8 12 -9 19 -1 7 -5 30 -9
51 l-8 40 34 -32 c19 -18 40 -32 47 -32 6 0 12 -4 12 -10 0 -5 9 -10 20 -10
11 0 20 -4 20 -10 0 -15 98 -40 157 -40 l53 0 0 94 c0 95 -18 166 -42 166 -6
0 -9 3 -5 6 3 3 -8 31 -24 62 -16 31 -29 60 -29 64 0 4 -15 39 -34 78 -19 38
-31 70 -28 70 4 0 1 4 -6 9 -7 4 -14 14 -15 22 -2 8 -22 55 -46 104 -25 50
-46 97 -47 105 -2 8 -11 20 -20 27 -10 7 -15 13 -11 13 10 0 -42 93 -70 127
-44 51 -60 68 -114 119 -63 59 -170 143 -216 170 -18 10 -33 22 -33 26 0 4 -7
8 -15 8 -8 0 -15 5 -15 12 0 6 -3 8 -7 4 -4 -3 -26 14 -49 39 -24 25 -48 45
-54 45 -6 0 -9 4 -6 8 7 12 -162 168 -216 200 -16 9 -28 19 -28 22 0 17 54 34
118 36 40 2 77 6 83 10 6 4 14 3 18 -2 3 -5 14 -10 25 -12 13 -2 16 1 10 10
-6 10 -5 11 8 1 8 -7 17 -10 20 -8 3 3 25 7 49 10 24 2 54 7 67 10 12 3 31 7
43 10 38 8 125 43 160 64 19 11 40 24 48 27 57 28 106 117 110 201 4 77 -18
97 -96 90 -59 -6 -88 -11 -126 -23 -12 -4 -33 -8 -47 -10 -31 -3 -79 -13 -102
-20 -54 -16 -273 -37 -395 -38 -46 -1 -83 -4 -83 -8 0 -4 -9 -5 -20 -3 -11 2
-22 0 -24 -4 -3 -4 -18 -8 -33 -9 -15 -1 -39 -4 -53 -7 -24 -6 -36 -8 -97 -20
-51 -10 -162 -24 -243 -30 -58 -4 -117 -14 -148 -26 -13 -5 -27 -7 -32 -4 -5
3 -10 2 -12 -2 -1 -5 -23 -19 -48 -32 -25 -13 -52 -30 -60 -37 -42 -37 -80
-78 -80 -87 0 -5 -7 -7 -15 -4 -8 4 -17 2 -21 -4 -3 -5 -11 -6 -17 -2 -11 7
-33 9 -47 3 -3 -1 -19 -2 -36 -3 -31 -2 -31 -1 -26 36 4 33 2 37 -17 37 -15 0
-20 -4 -15 -12 4 -7 -2 -4 -14 6 -15 13 -19 23 -12 31 6 7 6 15 -1 22 -8 8 -5
15 9 24 13 9 18 24 17 44 -3 43 -4 45 -19 45 -8 0 -16 6 -18 13 -9 23 -10 132
-1 124 4 -5 8 -12 8 -16 0 -15 50 -71 63 -71 7 0 10 5 7 10 -4 6 -2 17 4 24 6
7 12 32 15 57 2 24 5 44 6 44 1 0 3 25 5 55 5 104 3 98 25 70 11 -14 20 -30
20 -35 0 -17 59 -81 61 -67 1 6 2 20 3 30 1 9 5 23 9 30 5 7 4 12 -3 12 -7 0
-8 5 -3 13 4 6 8 28 9 47 2 44 11 91 25 127 6 15 10 30 9 32 -1 2 2 7 7 10 14
10 55 91 46 91 -4 0 -3 4 2 8 15 11 45 68 45 86 0 9 5 16 10 16 6 0 10 4 10 9
0 5 5 22 12 38 6 15 11 31 10 36 -1 4 2 7 8 7 6 0 9 3 8 8 -3 12 25 92 30 87
3 -3 6 -37 7 -75 1 -75 6 -88 25 -65 7 8 9 15 6 15 -4 0 5 11 19 25 14 14 25
32 25 39 0 8 7 19 15 26 9 7 13 15 11 18 -3 2 6 20 21 38 14 19 22 34 18 34
-3 0 1 7 9 16 9 8 14 19 11 24 -3 5 -2 10 2 12 12 5 53 84 53 102 0 9 4 16 8
16 4 0 12 14 17 32 14 45 33 47 30 3 -2 -19 -1 -35 2 -35 7 0 41 44 39 50 0 3
9 19 22 37 12 17 22 38 22 46 0 8 6 20 14 26 8 7 13 20 12 29 -2 9 5 36 15 60
11 26 14 42 7 42 -7 0 -7 4 1 13 6 8 8 17 4 20 -3 4 -2 7 3 7 6 0 10 10 11 23
0 12 3 36 7 52 4 17 9 46 11 65 3 19 7 51 10 70 3 19 7 77 9 128 2 52 8 98 13
103 6 6 21 -9 40 -38 17 -27 41 -59 53 -73 12 -14 25 -31 30 -39 8 -14 30 -7
30 10 0 6 -5 7 -12 3 -7 -4 -8 -3 -4 5 4 7 3 33 -3 59 -20 84 -35 159 -47 232
-3 19 -8 46 -10 60 -3 14 -6 31 -6 38 -1 6 -5 12 -9 12 -4 0 -7 6 -6 13 1 36
-4 68 -10 64 -5 -3 -9 22 -10 56 -1 33 -7 65 -12 70 -5 5 -7 16 -4 23 3 8 -1
22 -8 31 -12 14 -12 15 -1 9 12 -7 12 -4 2 14 -6 12 -9 27 -7 35 3 7 1 17 -4
22 -5 5 -10 21 -11 36 -1 15 -6 27 -10 27 -4 0 -7 3 -7 8 1 4 0 10 -1 15 -1 4
-3 10 -5 15 -14 51 -19 62 -27 62 -5 0 -6 5 -3 10 4 6 1 17 -5 25 -7 8 -10 15
-6 15 3 0 -5 18 -19 40 -32 51 -32 67 0 46 14 -9 25 -14 25 -12 0 3 12 -6 26
-19 15 -14 30 -22 35 -19 5 3 9 -3 9 -12 0 -13 3 -15 11 -7 13 13 0 39 -48 97
-18 21 0 28 34 15 15 -6 64 -12 108 -14 90 -4 96 -9 132 -102 3 -10 5 -22 4
-27 -1 -4 3 -13 8 -20 17 -21 29 -171 18 -236 -7 -48 46 7 59 60 2 8 10 33 18
55 8 22 15 54 17 70 2 17 8 36 14 44 8 12 7 13 -5 6 -13 -7 -13 -6 -2 7 10 13
10 17 0 21 -7 3 -8 6 -2 6 5 1 9 14 8 30 -1 17 4 32 11 35 7 2 19 27 26 55 23
91 32 42 27 -146 0 -14 -4 -20 -12 -16 -6 3 -8 2 -3 -2 4 -5 0 -19 -8 -32 -9
-13 -12 -23 -8 -23 4 0 -2 -7 -13 -16 -19 -15 -19 -15 1 -5 107 51 164 266
105 396 -11 24 -20 51 -20 59 0 9 -3 16 -8 16 -4 0 -13 13 -20 29 -7 17 -40
58 -72 93 -32 35 -57 65 -55 66 2 2 38 5 80 7 42 2 89 8 103 13 15 6 36 14 47
18 11 4 23 6 28 6 4 -1 7 2 7 8 0 5 5 10 10 10 14 0 57 40 44 41 -5 0 0 4 11
9 32 14 -3 12 -60 -4 -28 -7 -60 -11 -73 -10 -12 2 -22 1 -22 -4 0 -4 -11 -8
-25 -8 -14 -1 -23 1 -21 5 2 3 -18 6 -45 5 -27 0 -49 2 -49 6 0 3 -16 7 -37 8
-20 2 -41 6 -47 10 -6 4 -13 7 -16 7 -23 4 -84 39 -121 71 -78 66 -89 74 -99
74 -6 0 -10 5 -10 10 0 6 -7 10 -15 10 -8 0 -15 5 -15 11 0 5 -4 8 -9 5 -5 -4
-11 -2 -13 2 -5 13 -179 74 -194 68 -6 -2 -15 -2 -18 2 -21 21 -178 17 -237
-6 -44 -17 -54 2 -16 31 19 14 37 23 41 20 3 -4 6 -1 6 5 0 9 111 70 132 72 4
0 25 7 45 14 21 7 46 12 56 10 9 -1 17 1 17 4 0 4 13 7 30 8 19 1 27 -3 23
-10 -3 -6 -2 -8 2 -3 5 4 19 0 33 -9 13 -9 21 -11 18 -5 -9 15 -88 60 -118 68
-38 10 -132 10 -145 0 -7 -5 -17 -6 -23 -2 -5 3 -10 1 -10 -5 0 -7 -7 -10 -15
-6 -8 3 -15 1 -15 -5 0 -6 -4 -8 -9 -4 -5 3 -15 -1 -23 -8 -7 -7 -24 -17 -38
-24 -65 -30 -173 -138 -214 -214 -16 -30 -31 -56 -33 -58 -1 -3 -24 5 -51 17
-51 22 -79 33 -102 39 -24 6 -33 9 -60 21 -27 12 -30 10 40 18 34 3 68 12 79
19 5 3 13 1 16 -5 5 -8 11 -8 20 0 7 6 23 13 35 15 31 6 38 15 12 16 -30 2
-61 6 -64 9 -2 1 -16 3 -33 5 -66 9 -92 13 -125 20 -19 4 -53 9 -75 10 -22 1
-47 5 -55 8 -28 10 -155 32 -172 30 -10 -2 -18 1 -18 6 0 5 -18 8 -40 7 -22 0
-40 2 -40 5 0 3 -12 6 -27 7 -60 3 -88 8 -100 15 -6 4 -15 3 -18 -3 -5 -8 -11
-7 -21 1 -10 8 -14 8 -14 0 0 -7 -8 -8 -24 -1 -13 5 -26 6 -29 3 -3 -3 -10 -2
-16 1 -6 4 7 25 32 50 44 46 113 126 135 157 14 20 6 24 -28 12z m-1395 -740
c-16 -11 -21 -10 -37 3 -20 19 -13 41 8 23 11 -9 15 -8 20 6 7 16 8 16 17 -1
7 -13 5 -20 -8 -31z"/>
</g>
</svg>
