<?xml version="1.0" standalone="no"?>
<!DOCTYPE svg PUBLIC "-//W3C//DTD SVG 20010904//EN"
 "http://www.w3.org/TR/2001/REC-SVG-20010904/DTD/svg10.dtd">
<svg version="1.0" xmlns="http://www.w3.org/2000/svg"
 width="600.000000pt" height="600.000000pt" viewBox="0 0 600.000000 600.000000"
 preserveAspectRatio="xMidYMid meet">
<metadata>
Created by potrace 1.14, written by Peter Selinger 2001-2017
</metadata>
<g transform="translate(0.000000,600.000000) scale(0.100000,-0.100000)"
fill="#000000" stroke="none">
<path d="M2641 5938 c27 -91 65 -274 88 -423 45 -290 51 -571 15 -770 -41
-231 -194 -593 -323 -765 -50 -66 -58 -89 -20 -54 68 61 202 301 283 506 98
249 121 390 113 703 -6 237 -33 459 -82 665 -38 159 -54 200 -75 200 -17 0
-17 -2 1 -62z"/>
<path d="M2701 5958 c243 -338 720 -743 1114 -949 66 -34 122 -64 124 -65 2
-2 -13 -25 -33 -53 -20 -27 -45 -69 -56 -94 l-20 -45 -88 -6 c-247 -17 -403
-51 -546 -119 -119 -57 -197 -110 -264 -180 -55 -59 -75 -97 -66 -122 8 -20
13 -19 49 6 111 75 273 138 378 146 l81 6 -22 -28 c-15 -19 -22 -42 -22 -70 0
-23 -7 -62 -15 -85 -29 -84 -39 -209 -27 -339 16 -157 48 -259 115 -358 43
-65 63 -84 117 -115 62 -36 120 -50 120 -28 0 6 -11 15 -25 20 -85 32 -195
139 -195 188 0 39 57 99 124 132 61 30 71 32 144 28 133 -8 244 -75 297 -181
l26 -52 -48 -42 c-36 -31 -45 -45 -37 -53 30 -30 135 63 184 159 80 161 114
302 108 448 l-4 98 53 -10 53 -9 -6 -36 c-9 -49 -57 -205 -82 -266 -31 -76
-22 -83 84 -61 47 10 88 17 89 15 2 -2 -1 -30 -7 -63 -24 -148 34 -286 191
-457 33 -36 61 -71 61 -77 0 -6 -23 -50 -50 -98 -109 -189 -108 -303 2 -487
l49 -80 -30 -41 c-76 -106 -87 -223 -37 -382 l29 -92 -26 -58 c-46 -105 -57
-210 -32 -308 41 -154 156 -314 312 -434 29 -22 46 -44 53 -69 5 -20 14 -43
19 -51 7 -10 -1 -24 -26 -48 l-36 -33 -80 35 c-135 58 -238 125 -254 165 -38
92 -101 208 -148 273 -36 48 -49 74 -41 79 8 6 7 8 -2 8 -7 0 -37 22 -65 48
-102 95 -222 162 -290 162 -35 0 -56 -8 -106 -42 -346 -236 -557 -358 -661
-382 -68 -16 -197 -11 -422 15 l-98 11 -55 83 c-96 145 -194 215 -300 215 -31
0 -49 -7 -69 -25 -14 -13 -26 -28 -27 -32 0 -4 -3 -19 -5 -33 -3 -14 3 -44 12
-68 9 -24 14 -45 12 -48 -6 -6 -149 35 -335 97 -282 94 -528 271 -612 443 -16
33 -44 107 -61 164 -17 56 -64 169 -105 250 -70 141 -180 322 -205 337 -8 5
-7 12 5 25 15 17 14 19 -14 39 -17 13 -28 28 -25 36 3 7 -3 18 -14 24 -22 12
-72 104 -72 132 0 10 24 53 53 96 30 43 64 97 77 121 22 39 27 42 55 36 38 -8
36 -5 70 -89 83 -199 265 -377 466 -455 73 -28 159 -40 159 -22 0 4 -23 13
-51 19 -28 7 -66 22 -85 34 -31 19 -34 25 -34 67 1 64 27 116 94 189 43 46 71
67 112 83 62 23 170 27 197 8 10 -8 22 -39 29 -75 9 -51 9 -73 -4 -125 -9 -35
-18 -69 -20 -77 -1 -8 4 -16 13 -18 17 -4 54 68 63 125 13 77 -53 284 -130
410 -22 35 -47 77 -56 94 -24 45 -82 101 -170 168 -43 33 -74 62 -69 65 6 3
16 19 25 35 14 29 14 31 -11 47 -38 25 -177 55 -281 60 -90 5 -93 6 -89 26 3
12 9 39 12 59 6 29 12 37 31 40 31 4 36 22 8 26 -20 3 -21 10 -27 155 -9 245
-57 501 -161 863 -76 262 -228 707 -258 754 -12 19 -19 40 81 -265 83 -251
176 -580 206 -722 19 -87 33 -606 21 -725 l-7 -66 -36 -7 c-61 -11 -143 -46
-143 -60 0 -9 15 -7 58 10 31 12 69 25 84 29 31 7 33 -1 22 -86 -6 -44 -8 -46
-61 -68 -62 -26 -186 -105 -256 -162 l-48 -40 -80 13 c-72 11 -87 11 -126 -3
-51 -18 -50 -20 -73 85 -7 31 -15 55 -18 53 -2 -3 4 -41 14 -86 15 -72 15 -82
2 -93 -50 -40 -60 -96 -29 -162 21 -47 43 -68 97 -94 l39 -19 0 -76 0 -76 -43
0 c-24 0 -57 -7 -73 -16 -36 -18 -30 -22 -102 86 -150 226 -267 526 -352 900
l-33 145 -1 -77 c-1 -123 82 -426 184 -668 51 -119 143 -289 200 -369 33 -46
39 -61 39 -108 l1 -55 -44 49 c-24 26 -52 62 -63 78 -24 40 -23 15 1 -33 29
-57 99 -137 161 -183 76 -58 238 -134 394 -185 89 -29 135 -49 145 -64 8 -11
11 -23 7 -27 -12 -12 -271 -15 -343 -4 -99 15 -203 56 -253 98 -44 38 -126
135 -203 241 -56 77 -132 229 -188 375 l-38 102 -1 -68 c0 -49 7 -84 25 -129
14 -34 25 -73 24 -87 0 -22 -4 -18 -25 24 l-24 50 0 -36 c0 -52 73 -202 134
-274 27 -33 79 -90 114 -126 36 -37 63 -72 60 -79 -6 -20 -186 169 -248 262
-55 84 -60 88 -60 59 0 -18 7 -46 16 -64 26 -50 123 -165 208 -245 l77 -73 -7
-74 c-4 -41 -10 -75 -14 -75 -31 0 -176 145 -238 238 -25 38 -38 50 -40 38 -8
-38 149 -218 251 -286 20 -14 37 -32 37 -40 0 -36 52 -119 106 -172 l58 -57
-28 -11 c-15 -5 -47 -10 -71 -10 -38 0 -53 7 -117 59 -88 70 -141 126 -197
205 l-41 59 0 -94 c0 -126 17 -352 36 -469 37 -239 121 -439 252 -598 40 -48
135 -126 203 -166 42 -24 47 -30 53 -74 11 -84 62 -169 159 -264 49 -49 84
-88 77 -88 -23 0 -71 -42 -90 -80 -33 -64 -27 -132 19 -226 51 -104 136 -224
159 -224 26 0 72 -52 72 -81 0 -16 -10 -29 -29 -41 -28 -15 -59 -64 -75 -115
-6 -19 -4 -23 16 -23 18 0 27 10 41 44 24 57 51 83 71 67 8 -7 40 -15 71 -18
55 -6 57 -7 78 -49 16 -33 27 -44 44 -44 l23 0 -25 49 c-13 27 -29 52 -35 56
-5 3 -10 12 -10 18 0 7 4 6 10 -3 8 -12 10 -11 10 7 0 30 40 74 95 102 l46 24
37 -35 c20 -19 58 -52 84 -72 l47 -38 -24 -49 c-14 -26 -25 -51 -25 -54 0 -3
221 -5 491 -5 462 0 490 1 485 18 -3 9 -12 46 -21 82 -29 114 -86 283 -122
357 -44 92 -83 127 -132 119 -59 -9 -116 -89 -74 -103 6 -2 19 10 30 27 32 55
77 50 109 -12 l15 -29 -83 3 c-81 3 -83 3 -105 37 -25 37 -41 88 -74 236 -33
148 -38 428 -11 583 11 62 26 120 33 129 11 12 27 15 84 10 95 -7 296 -55 316
-76 9 -9 26 -42 39 -74 15 -38 27 -56 36 -53 11 4 49 -79 78 -171 9 -29 9 -29
-136 8 -123 32 -157 32 -190 2 -40 -36 -9 -106 68 -154 48 -29 141 -48 241
-49 l82 0 25 -82 c14 -46 32 -111 40 -146 l14 -63 -26 -10 c-21 -8 -58 -2
-176 27 -153 38 -246 47 -281 26 -17 -10 -12 -11 32 -12 51 0 305 -60 413 -98
53 -18 55 -20 63 -63 18 -105 47 -355 47 -409 0 -55 2 -60 21 -60 21 0 22 2
15 108 -16 235 -59 498 -117 706 -61 222 -197 559 -261 648 -31 44 -83 130
-92 153 -4 13 2 27 21 47 21 22 36 28 69 28 60 0 88 -13 156 -72 86 -74 136
-152 221 -338 133 -296 186 -448 312 -900 31 -113 61 -209 66 -215 6 -5 13 -5
21 3 8 8 4 37 -17 119 -49 191 -176 627 -184 638 -12 14 -72 255 -66 265 2 4
31 17 64 29 33 12 82 37 110 56 58 40 54 44 66 -69 3 -32 26 -144 51 -249 63
-268 101 -451 109 -529 7 -67 7 -68 -35 -135 -24 -37 -74 -112 -111 -165 -38
-53 -69 -99 -69 -103 0 -3 10 1 23 10 52 33 179 211 337 470 93 153 393 715
485 908 45 96 75 147 85 147 8 0 31 -13 51 -29 31 -26 37 -39 49 -100 7 -41
10 -92 6 -124 -8 -72 -69 -282 -102 -355 -25 -55 -108 -243 -161 -367 -75
-173 -206 -412 -288 -523 -43 -60 -44 -62 -21 -62 30 0 93 76 167 202 56 95
117 159 182 189 81 36 137 17 137 -49 0 -17 -16 -78 -35 -134 -19 -56 -38
-126 -42 -155 l-6 -53 179 1 179 0 32 67 c42 85 149 235 230 321 l63 66 -39
-95 c-88 -214 -110 -259 -145 -306 l-38 -49 573 -3 c315 -1 574 0 576 2 2 2
-5 25 -16 52 -10 27 -29 74 -40 104 l-21 55 20 -25 c25 -29 90 -158 90 -177 0
-10 32 -13 136 -13 l135 0 -6 23 c-19 62 -96 221 -139 287 -27 41 -83 110
-125 154 -94 97 -299 276 -317 276 -14 0 -18 12 -29 85 -12 78 -38 171 -62
223 l-25 53 84 87 c290 299 517 650 617 957 43 133 24 235 -44 235 -32 0 -32
-11 0 -38 14 -12 25 -31 25 -43 0 -20 0 -20 -27 -1 -16 11 -44 26 -63 35 -19
8 -55 29 -80 47 l-44 33 119 59 c66 32 134 58 150 58 17 0 50 -13 75 -30 55
-36 60 -37 60 -5 0 15 -9 31 -24 40 -21 14 -24 24 -23 73 0 35 -6 70 -17 89
l-16 33 40 26 c23 15 40 35 40 45 0 11 -2 19 -4 19 -2 0 -44 -25 -92 -56 -49
-30 -126 -73 -172 -95 -77 -37 -96 -59 -52 -59 11 0 59 20 107 45 48 25 90 45
94 45 10 0 29 -59 29 -90 0 -25 -4 -28 -44 -32 -24 -3 -99 -31 -166 -62 -67
-31 -129 -56 -138 -54 -18 4 -175 206 -214 277 l-26 48 166 109 c235 154 394
314 417 420 5 20 -5 9 -31 -36 -58 -99 -167 -200 -364 -336 -221 -152 -204
-142 -197 -113 21 87 45 128 112 190 83 77 121 118 158 173 50 73 103 186 62
132 -21 -28 -19 -17 9 46 39 89 152 408 176 502 13 50 28 86 35 86 7 0 26 15
42 34 17 18 43 38 59 43 21 7 30 17 32 38 3 23 1 27 -15 20 -30 -12 -86 -25
-114 -25 -24 0 -27 4 -42 80 -18 92 -58 184 -109 251 l-35 46 45 12 c40 10 47
10 66 -8 23 -21 105 -51 139 -51 41 0 67 12 67 31 0 15 -6 17 -35 12 -36 -6
-121 11 -142 29 -10 8 1 19 43 44 105 63 134 92 134 131 l0 35 -54 -49 c-58
-54 -184 -124 -254 -143 -37 -10 -48 -9 -70 6 -15 9 -31 23 -35 31 -4 7 -14
13 -21 13 -7 0 -22 10 -34 23 -20 22 -21 28 -12 107 5 47 10 110 10 141 l0 56
53 6 c73 9 186 68 257 134 70 65 160 195 160 233 0 20 -10 10 -48 -50 -93
-145 -256 -267 -372 -278 l-47 -4 -10 123 c-10 123 -9 125 18 191 27 66 54
223 41 243 -4 5 -7 13 -7 17 0 19 -16 14 -53 -17 -22 -20 -43 -32 -45 -28 -2
5 -17 65 -32 134 l-27 125 21 44 c24 50 21 68 -4 21 -8 -17 -19 -31 -24 -31
-4 0 -13 18 -20 41 -24 80 -18 33 9 -76 53 -210 100 -568 100 -764 0 -284 -60
-572 -161 -777 -37 -76 -101 -164 -118 -164 -5 0 -5 22 0 49 12 78 12 190 1
266 -13 81 -47 186 -64 196 -16 10 -35 -6 -42 -36 -3 -13 -11 -37 -17 -52
l-10 -27 -12 24 c-31 62 -119 57 -581 -34 l-119 -23 7 101 c4 55 9 102 10 104
5 4 96 18 346 52 124 17 238 36 253 42 33 13 51 41 42 68 -8 27 -2 25 47 -10
73 -53 92 -38 135 100 24 79 60 151 82 164 22 14 101 165 101 193 0 32 -26 63
-53 63 -21 0 -22 -14 -2 -30 8 -7 15 -19 15 -27 0 -21 -53 -120 -113 -211 -33
-50 -57 -98 -61 -123 -4 -23 -16 -53 -26 -67 -11 -13 -20 -33 -20 -44 0 -11
-4 -18 -8 -16 -18 7 -269 225 -301 261 -31 34 -34 44 -35 102 -1 35 4 69 10
75 16 16 44 1 44 -25 0 -13 8 -33 19 -46 17 -21 21 -22 60 -11 29 9 41 18 41
32 0 20 -44 60 -66 60 -28 0 -85 34 -79 48 3 7 5 25 5 38 0 20 9 29 43 44 23
11 59 20 80 20 45 0 198 -33 275 -60 72 -26 90 -26 71 -3 -35 42 -233 103
-334 103 -49 0 -70 -5 -98 -24 -37 -25 -72 -25 -92 1 -13 17 -120 36 -167 30
-31 -4 -38 -2 -38 12 0 48 -99 102 -228 125 -46 7 -85 16 -87 17 -1 2 -17 55
-35 118 -31 112 -76 241 -87 251 -8 7 -1 -25 46 -199 22 -85 39 -156 38 -158
-2 -1 -28 48 -57 110 -63 129 -165 317 -182 332 -7 6 -9 6 -6 0 3 -5 27 -55
53 -110 26 -55 72 -151 101 -213 30 -62 54 -116 54 -120 0 -4 -26 -6 -58 -4
-43 3 -62 0 -71 -12 -20 -24 -43 -201 -37 -286 6 -91 6 -95 3 -144 -2 -39 4
-47 48 -61 15 -5 6 -11 -42 -27 l-62 -20 -108 57 c-145 76 -389 239 -548 366
-158 126 -401 362 -521 504 -48 58 -93 105 -101 105 -8 0 -2 -15 18 -42z
m1611 -492 c106 -21 183 -52 213 -88 23 -27 25 -36 19 -77 -3 -25 -10 -50 -14
-54 -4 -5 -38 7 -75 27 -38 20 -74 36 -82 36 -31 0 -8 -19 70 -56 l82 -39 3
-42 c3 -37 0 -44 -20 -52 -46 -20 -245 -70 -322 -82 -70 -11 -79 -10 -88 4 -5
10 -18 17 -28 17 -18 0 -20 7 -20 63 1 65 15 242 26 315 l6 42 78 0 c43 0 111
-6 152 -14z m1237 -68 c-8 -82 -30 -153 -41 -136 -12 20 -9 68 7 123 21 70 23
75 33 75 4 0 5 -28 1 -62z m-821 -84 c30 -3 56 -12 59 -20 8 -23 -15 -147 -32
-163 -14 -14 -20 -14 -60 8 -30 16 -55 22 -80 19 l-35 -4 0 81 c0 45 3 85 7
89 5 4 26 5 48 2 22 -3 64 -8 93 -12z m-31 -211 c51 -27 53 -30 53 -70 0 -55
51 -120 151 -193 41 -29 77 -56 81 -59 4 -3 -16 -5 -45 -3 -54 4 -336 -29
-466 -54 -41 -7 -76 -12 -79 -10 -2 2 -10 55 -17 118 -7 62 -16 134 -20 159
l-7 47 100 31 c55 17 104 36 110 43 20 24 84 20 139 -9z m224 -1 c-16 -5 -41
5 -41 17 0 7 10 6 26 -1 15 -7 21 -14 15 -16z m-611 -79 c0 -5 7 -51 15 -103
8 -52 11 -98 7 -101 -4 -4 -41 6 -83 22 -73 28 -77 32 -84 66 -3 20 -19 49
-35 65 l-28 28 36 0 c20 1 64 7 97 14 76 18 75 17 75 9z m-44 -216 l69 -24 0
-43 0 -44 -50 -13 c-44 -12 -114 -11 -135 2 -4 3 -2 22 6 42 7 21 13 53 14 71
0 39 5 39 96 9z m721 -90 c15 -15 14 -17 -8 -26 -39 -17 -673 -102 -736 -99
l-58 3 30 16 c78 42 591 133 708 125 27 -2 55 -10 64 -19z m-3762 -337 c8 -69
15 -179 15 -243 0 -108 -1 -117 -19 -117 -17 0 -18 12 -19 218 0 121 -2 243
-6 273 -4 41 -3 47 4 25 5 -16 16 -86 25 -156z m4338 94 c92 -57 157 -144 197
-264 32 -95 33 -274 1 -385 -38 -136 -82 -206 -211 -336 -63 -64 -153 -145
-199 -182 l-84 -66 -38 29 c-62 50 -62 34 0 -40 84 -100 95 -127 88 -216 -4
-60 -14 -92 -52 -171 -98 -208 -285 -450 -353 -458 -29 -4 -40 3 -109 73 -198
199 -282 368 -253 507 13 62 106 255 123 255 5 0 50 -38 98 -85 83 -80 119
-102 119 -72 0 6 -17 23 -37 37 -52 36 -296 302 -349 381 -72 109 -93 190 -75
298 6 35 12 65 14 67 2 3 30 11 61 19 32 8 80 25 107 37 l50 21 29 -34 c17
-19 54 -70 84 -114 62 -91 234 -265 262 -265 13 0 -3 22 -56 76 -41 42 -83 85
-92 95 -16 17 -15 22 13 87 23 56 46 87 113 155 l83 86 47 -72 c61 -93 80
-160 73 -252 -10 -126 -116 -389 -213 -526 -39 -55 -42 -64 -26 -67 17 -3 15
-11 -20 -115 -21 -62 -41 -119 -44 -127 -8 -22 -27 16 -64 127 -27 80 -50 124
-50 96 0 -28 46 -167 72 -215 25 -47 29 -63 23 -97 -6 -34 -4 -41 9 -41 9 0
16 8 16 20 0 20 47 174 96 315 13 39 24 75 24 82 0 6 19 44 43 85 24 40 63
120 86 178 58 144 58 144 112 187 52 41 69 65 41 57 -9 -2 -7 1 6 7 33 18 29
42 -7 34 -34 -7 -55 19 -67 81 -4 21 -13 56 -20 77 -7 20 -10 37 -6 37 4 0 43
-21 86 -46 52 -30 82 -42 88 -36 15 15 -122 101 -182 115 -14 3 -44 26 -68 49
l-42 44 36 54 35 55 -5 -71 c-3 -52 -1 -77 9 -90 13 -18 15 -18 48 -1 63 34
154 179 203 324 15 45 31 80 36 77 19 -12 60 -110 79 -192 17 -71 20 -108 17
-202 l-5 -115 19 60 c39 125 3 337 -77 445 -32 43 -34 49 -24 86 20 77 19 77
82 38z m-2023 -9 c38 -20 60 -53 60 -90 0 -55 -43 -88 -104 -78 -55 8 -74 19
-96 55 -14 23 -16 37 -9 62 17 61 84 85 149 51z m1490 -65 c13 -9 13 -11 0
-20 -8 -5 -40 -14 -70 -20 -30 -6 -163 -34 -295 -62 -242 -51 -415 -71 -415
-50 0 16 65 47 125 61 42 9 427 81 505 94 49 8 135 7 150 -3z m129 -45 c6 -25
14 -71 17 -103 6 -56 6 -58 -42 -122 -26 -36 -101 -118 -167 -184 -76 -76
-116 -124 -113 -133 3 -8 10 -11 16 -8 12 8 12 -1 -4 -44 l-12 -34 -29 34
c-15 19 -35 50 -43 69 -7 19 -29 52 -48 73 l-33 40 57 37 c137 88 285 244 349
367 15 29 31 53 34 53 4 0 12 -20 18 -45z m-948 3 c44 -24 48 -33 19 -41 -11
-3 -20 -9 -19 -14 8 -48 -15 -41 -29 10 -7 23 -15 48 -18 55 -8 17 3 15 47
-10z m796 -85 c-95 -124 -295 -289 -345 -285 -12 1 -25 -5 -28 -13 -7 -18
-161 -78 -181 -70 -9 3 -22 0 -29 -6 -14 -12 -156 -51 -162 -44 -2 2 9 39 26
82 16 43 40 119 53 168 l22 90 166 33 c317 63 505 102 509 107 3 3 7 3 10 1 2
-3 -16 -31 -41 -63z m853 -253 c0 -5 -4 -10 -10 -10 -5 0 -10 5 -10 10 0 6 5
10 10 10 6 0 10 -4 10 -10z m-4627 -67 c-12 -73 -19 -88 -42 -91 -18 -3 -22 0
-18 15 3 10 9 39 13 66 5 41 9 47 30 47 21 0 22 -3 17 -37z m377 -183 c8 -5
11 -10 5 -10 -5 0 -17 5 -25 10 -8 5 -10 10 -5 10 6 0 17 -5 25 -10z m3658
-162 c-2 -6 -10 -14 -16 -16 -7 -2 -10 2 -6 12 7 18 28 22 22 4z m393 -125
c-52 -141 -72 -187 -104 -243 -17 -30 -29 -55 -27 -55 3 0 -3 -11 -12 -24 -10
-14 -20 -23 -23 -20 -2 3 -8 51 -11 107 l-7 102 103 105 c57 58 105 105 107
105 1 0 -10 -35 -26 -77z m-4540 24 c28 -19 35 -30 37 -64 3 -34 -1 -44 -24
-62 -31 -25 -73 -27 -114 -6 -55 28 -67 89 -25 130 31 32 81 33 126 2z m-161
-157 c0 -17 -91 -176 -112 -195 -18 -17 0 69 28 132 38 88 52 107 70 92 8 -6
14 -19 14 -29z m-320 20 c0 -5 -4 -10 -9 -10 -6 0 -13 5 -16 10 -3 6 1 10 9
10 9 0 16 -4 16 -10z m4819 -251 c7 -13 -1 -27 -38 -63 -26 -25 -50 -46 -54
-46 -4 0 -7 20 -7 44 0 29 -10 63 -29 99 l-29 56 66 55 67 55 7 -92 c4 -51 12
-99 17 -108z m-5295 -138 c-6 -7 -35 22 -48 48 -32 62 -24 71 12 16 21 -33 38
-62 36 -64z m115 -136 c28 -33 36 -45 28 -45 -2 0 -21 18 -42 40 -21 22 -34
40 -28 40 6 0 25 -16 42 -35z m471 -12 c12 -11 6 -11 -30 3 -58 22 -64 28 -20
19 19 -4 42 -14 50 -22z m194 -43 c31 -47 26 -48 -74 -11 -96 36 -101 51 -17
51 64 0 64 0 91 -40z m-435 -161 c45 -29 81 -37 81 -20 0 5 -6 12 -12 15 -17
8 31 -4 60 -15 12 -5 22 -14 22 -21 0 -16 138 -178 151 -178 6 0 7 -23 3 -60
-10 -93 9 -72 41 43 15 56 34 114 42 129 7 15 13 36 13 47 0 23 18 29 95 33
l50 3 52 -104 51 -105 -35 -70 c-45 -88 -120 -214 -144 -242 -11 -11 -16 -23
-13 -27 3 -3 -4 -32 -16 -64 -25 -66 -105 -343 -115 -397 -4 -20 -3 -36 2 -36
4 0 43 111 86 246 68 214 85 259 135 340 31 51 60 90 63 86 3 -4 33 -40 67
-79 77 -91 93 -122 99 -193 10 -108 -27 -212 -132 -370 -31 -47 -75 -104 -97
-127 -24 -24 -37 -46 -33 -53 5 -8 10 -9 18 -1 23 23 23 9 2 -66 -12 -43 -26
-94 -31 -113 l-10 -35 -25 40 c-14 22 -38 62 -54 88 l-28 48 28 -3 c37 -4 44
19 8 28 -105 25 -257 123 -322 208 -51 66 -71 126 -71 217 0 99 47 319 68 319
21 0 152 -78 152 -90 0 -29 71 -198 90 -215 28 -25 25 -11 -20 100 -22 54 -40
102 -40 107 0 5 12 7 28 4 15 -3 34 -1 42 4 13 9 13 11 0 20 -8 5 -24 10 -35
10 -53 1 -334 180 -413 264 -79 83 -84 102 -80 281 l3 152 64 -60 c36 -33 85
-73 110 -88z m4829 36 c124 -185 281 -348 398 -416 79 -45 80 -49 54 -122 -12
-34 -55 -127 -95 -207 -131 -261 -273 -456 -504 -692 l-85 -88 -11 28 c-11 25
-7 33 57 112 78 96 140 214 164 310 32 129 4 299 -61 360 l-23 21 33 50 c57
84 78 152 79 254 0 68 -5 104 -21 147 -30 80 -123 210 -123 172 0 -4 18 -39
39 -78 49 -90 71 -163 71 -240 0 -124 -43 -221 -147 -335 -77 -84 -222 -203
-240 -196 -7 2 -13 -2 -13 -9 0 -20 28 -28 53 -15 18 9 17 6 -6 -17 l-28 -29
-22 26 c-12 15 -35 44 -52 65 -22 29 -31 35 -33 22 -6 -34 41 -100 150 -210
125 -126 160 -133 48 -9 l-72 80 36 37 c19 20 34 44 33 53 -1 9 42 58 100 115
l101 98 16 -25 c58 -87 72 -235 35 -367 -27 -98 -65 -168 -146 -268 l-67 -83
-45 7 c-47 7 -104 45 -203 136 -151 140 -249 341 -234 482 7 64 45 196 57 196
4 0 22 -25 39 -55 44 -78 115 -153 130 -139 9 9 5 20 -17 45 -115 136 -202
362 -189 491 6 59 57 178 76 178 6 0 10 -4 10 -9 0 -5 36 -46 79 -91 67 -69
80 -88 85 -124 4 -24 15 -60 26 -80 l19 -37 -31 -72 c-36 -84 -78 -205 -78
-224 0 -19 20 -16 27 5 17 50 131 318 165 390 22 46 66 116 97 155 57 70 166
229 190 275 7 13 14 22 16 20 1 -1 30 -43 63 -93z m-4463 -92 c-4 -10 -16 -44
-27 -76 l-20 -58 -30 28 c-16 15 -48 49 -70 76 l-40 47 97 0 c89 0 97 -2 90
-17z m-815 -203 c16 -59 81 -134 142 -164 57 -27 194 -47 206 -30 4 6 26 16
49 22 39 12 46 11 83 -10 46 -26 46 -21 3 -140 l-28 -77 -45 -6 c-60 -8 -180
17 -236 50 -114 67 -189 201 -214 383 -7 55 -7 55 11 33 10 -13 23 -40 29 -61z
m4874 -67 c-15 -26 -29 -50 -30 -51 -4 -6 -21 32 -28 63 -6 30 -6 30 39 33
l46 3 -27 -48z m-4724 -60 c0 -10 -39 19 -70 53 -35 37 -35 37 18 -6 28 -24
52 -45 52 -47z m1000 -4 c0 -55 -11 -61 -46 -28 l-23 21 27 34 c14 18 30 30
34 28 4 -3 8 -27 8 -55z m-1018 -239 c73 -48 146 -71 241 -75 l70 -3 1 -103
c1 -90 5 -112 27 -160 15 -31 44 -75 64 -98 l38 -41 -31 -63 c-31 -60 -62
-162 -62 -199 0 -17 -2 -17 -28 -4 -59 31 -157 112 -208 174 -122 149 -217
406 -249 677 l-7 60 41 -62 c28 -42 62 -75 103 -103z m1358 -230 c155 -102
380 -207 419 -196 9 3 85 -16 170 -43 129 -40 156 -51 163 -71 7 -20 6 -22
-14 -17 -13 3 -77 17 -142 31 -66 14 -123 30 -126 37 -6 8 -9 8 -14 0 -4 -6
-16 -11 -26 -11 -53 0 -96 -46 -92 -100 2 -22 -9 -38 -54 -79 l-56 -51 -37 21
c-102 62 -284 204 -435 342 l-50 45 34 73 c22 51 34 95 38 141 l5 67 61 -63
c33 -35 104 -91 156 -126z m2556 -41 c29 -9 32 -14 37 -66 9 -82 62 -182 154
-286 106 -121 326 -270 482 -328 40 -15 74 -29 76 -31 8 -8 -45 -139 -77 -188
-19 -30 -47 -78 -61 -106 -16 -31 -36 -55 -54 -63 -110 -50 -204 -122 -358
-277 -88 -88 -189 -199 -225 -247 -36 -47 -68 -86 -71 -86 -3 -1 -11 9 -18 22
-11 20 -8 35 14 98 42 117 47 140 42 188 -10 87 -91 125 -184 86 -19 -8 -37
-15 -39 -15 -14 0 1 57 32 120 20 41 52 113 71 160 20 47 48 111 64 142 38 75
69 160 116 310 31 103 37 137 37 213 0 100 -10 129 -65 183 -78 76 -133 74
-168 -7 -52 -122 -152 -323 -157 -318 -8 8 22 158 48 237 43 134 129 276 170
282 24 4 82 -6 134 -23z m216 -175 c57 -79 154 -252 145 -260 -2 -3 -43 33
-89 79 -69 68 -94 100 -127 168 -22 46 -44 98 -47 114 l-7 30 34 -26 c19 -14
60 -62 91 -105z m-2974 3 c142 -125 222 -186 326 -251 l86 -54 -52 -42 c-29
-24 -69 -50 -88 -58 -25 -11 -30 -17 -18 -19 28 -7 80 23 173 99 82 66 87 69
81 42 -19 -72 -26 -149 -26 -271 l0 -132 -27 -3 c-38 -4 -41 -27 -5 -34 31 -6
31 -6 -46 -63 l-77 -57 -18 40 c-38 82 -48 118 -37 131 12 15 -6 25 -27 17
-32 -11 -10 -89 67 -243 27 -56 50 -105 50 -110 0 -5 -22 -38 -49 -73 -52 -68
-144 -213 -180 -284 -12 -23 -25 -42 -29 -42 -4 0 -41 31 -81 68 l-75 68 20
31 c10 17 38 55 60 85 72 94 97 153 102 243 4 68 1 89 -18 133 -23 53 -97 132
-125 132 -21 0 -19 6 13 51 25 36 30 39 79 39 28 0 54 4 58 9 8 14 -28 31 -64
31 l-30 0 14 33 c45 109 40 242 -15 352 -28 58 -132 185 -151 185 -20 0 -6
-31 46 -101 30 -41 64 -99 76 -129 26 -68 35 -177 20 -250 -23 -109 -53 -155
-203 -307 -107 -109 -139 -146 -130 -155 9 -9 18 -6 38 13 24 22 23 18 -14
-56 -50 -100 -80 -201 -64 -217 8 -8 13 -6 18 8 21 64 82 206 156 360 6 12 36
48 68 79 l58 57 40 -37 c95 -85 120 -221 63 -340 -30 -64 -138 -204 -191 -249
-66 -55 -99 -65 -183 -57 l-77 7 -69 70 c-141 143 -205 288 -170 381 12 34 68
93 86 93 8 0 39 -18 69 -41 67 -49 120 -73 129 -58 9 13 12 10 -60 52 -114 66
-255 201 -312 297 -30 50 -53 135 -53 195 0 55 27 174 54 238 l17 38 45 -31
c24 -17 69 -42 98 -55 48 -21 57 -31 91 -92 20 -37 55 -90 77 -116 37 -44 39
-50 29 -79 -26 -75 -2 -80 27 -5 25 63 50 153 71 265 15 75 22 91 81 172 36
49 67 89 68 90 2 0 52 -42 110 -93z m1707 -187 c57 -4 83 -9 70 -14 -11 -4
-65 -29 -120 -56 -115 -56 -145 -66 -145 -50 0 6 -15 17 -33 25 -38 16 -46 24
-70 78 l-17 38 112 -7 c62 -4 154 -10 203 -14z m1965 -201 c0 -7 9 -9 21 -6
15 4 19 1 17 -11 -5 -27 -67 -23 -85 6 -15 21 -14 22 16 22 17 0 31 -5 31 -11z
m101 -134 c23 -52 53 -203 79 -394 11 -84 20 -158 20 -165 0 -6 -17 16 -38 49
-20 33 -36 65 -34 71 3 15 -12 26 -84 63 -70 35 -167 51 -202 32 -27 -14 -27
-7 -11 101 31 208 81 308 146 294 16 -4 40 -3 54 2 30 12 47 0 70 -53z m-2761
15 c58 -16 113 -30 123 -30 20 0 52 -63 43 -86 -7 -18 -181 -19 -241 -3 -70
20 -140 111 -108 142 14 14 82 6 183 -23z m-490 -372 c0 -4 -7 -5 -16 -1 -10
4 -32 -11 -63 -44 l-49 -51 -22 40 c-12 21 -20 45 -17 52 3 7 36 36 74 64 l68
51 12 -52 c7 -29 12 -55 13 -59z m760 -108 c0 -5 -7 -7 -15 -4 -8 4 -15 8 -15
10 0 2 7 4 15 4 8 0 15 -4 15 -10z m-1612 -420 c11 -18 10 -20 -8 -20 -13 0
-20 7 -20 20 0 11 3 20 8 20 4 0 13 -9 20 -20z"/>
<path d="M5419 5960 c-30 -22 -59 -40 -65 -40 -7 0 -10 -8 -7 -19 5 -20 11
-16 142 95 2 2 0 4 -6 4 -6 0 -35 -18 -64 -40z"/>
<path d="M1658 5890 c133 -232 230 -422 273 -535 18 -47 39 -87 39 -74 0 3
-16 45 -36 95 -64 160 -223 462 -275 524 l-21 25 20 -35z"/>
<path d="M5670 5483 c25 -82 90 -396 90 -438 0 -20 5 -35 11 -35 17 0 6 98
-30 278 -32 158 -58 243 -78 249 -7 3 -5 -15 7 -54z"/>
<path d="M1881 5423 c-1 -6 12 -69 28 -140 51 -221 67 -419 50 -627 -20 -236
-73 -421 -189 -653 -42 -84 -75 -153 -74 -153 1 0 20 28 42 63 244 387 319
858 210 1332 -19 83 -65 206 -67 178z"/>
<path d="M371 5394 c0 -11 3 -14 6 -6 3 7 2 16 -1 19 -3 4 -6 -2 -5 -13z"/>
<path d="M362 5315 c0 -16 2 -22 5 -12 2 9 2 23 0 30 -3 6 -5 -1 -5 -18z"/>
<path d="M1976 5250 c3 -14 11 -32 16 -40 6 -10 7 -7 2 10 -3 14 -11 32 -16
40 -6 10 -7 7 -2 -10z"/>
<path d="M2211 5254 c0 -11 3 -14 6 -6 3 7 2 16 -1 19 -3 4 -6 -2 -5 -13z"/>
<path d="M353 5200 c0 -25 2 -35 4 -22 2 12 2 32 0 45 -2 12 -4 2 -4 -23z"/>
<path d="M2221 5205 c0 -5 4 -55 9 -110 15 -153 -13 -541 -56 -758 -44 -224
-158 -450 -293 -582 -28 -27 -51 -55 -51 -62 0 -27 61 -46 132 -41 108 8 215
65 323 172 48 47 84 86 81 86 -4 0 2 17 13 38 46 92 32 115 -17 28 -93 -164
-289 -296 -442 -296 -32 0 -61 4 -64 9 -4 5 24 38 60 72 149 144 258 373 304
644 32 184 44 433 31 599 -10 120 -27 235 -30 201z"/>
<path d="M2000 5185 c0 -5 5 -17 10 -25 5 -8 10 -10 10 -5 0 6 -5 17 -10 25
-5 8 -10 11 -10 5z"/>
<path d="M341 4994 c0 -11 3 -14 6 -6 3 7 2 16 -1 19 -3 4 -6 -2 -5 -13z"/>
<path d="M3234 4835 c-78 -21 -147 -49 -216 -88 -67 -38 -128 -89 -128 -106 0
-17 8 -13 48 19 68 54 342 170 403 170 11 0 19 5 19 10 0 14 -65 11 -126 -5z"/>
<path d="M353 4715 c0 -22 2 -30 4 -17 2 12 2 30 0 40 -3 9 -5 -1 -4 -23z"/>
<path d="M362 4570 c0 -14 2 -19 5 -12 2 6 2 18 0 25 -3 6 -5 1 -5 -13z"/>
<path d="M371 4454 c0 -11 3 -14 6 -6 3 7 2 16 -1 19 -3 4 -6 -2 -5 -13z"/>
<path d="M381 4364 c0 -11 3 -14 6 -6 3 7 2 16 -1 19 -3 4 -6 -2 -5 -13z"/>
<path d="M401 4204 c0 -11 3 -14 6 -6 3 7 2 16 -1 19 -3 4 -6 -2 -5 -13z"/>
<path d="M421 4074 c0 -11 3 -14 6 -6 3 7 2 16 -1 19 -3 4 -6 -2 -5 -13z"/>
<path d="M431 4014 c0 -11 3 -14 6 -6 3 7 2 16 -1 19 -3 4 -6 -2 -5 -13z"/>
<path d="M442 3960 c0 -14 2 -19 5 -12 2 6 2 18 0 25 -3 6 -5 1 -5 -13z"/>
<path d="M451 3904 c0 -11 3 -14 6 -6 3 7 2 16 -1 19 -3 4 -6 -2 -5 -13z"/>
<path d="M462 3860 c0 -14 2 -19 5 -12 2 6 2 18 0 25 -3 6 -5 1 -5 -13z"/>
<path d="M472 3810 c0 -14 2 -19 5 -12 2 6 2 18 0 25 -3 6 -5 1 -5 -13z"/>
<path d="M4242 3708 c-24 -24 -9 -54 21 -42 21 8 30 36 15 46 -17 10 -22 10
-36 -4z"/>
<path d="M4093 3575 c-38 -16 -42 -38 -11 -59 32 -23 55 -20 74 9 34 51 0 78
-63 50z"/>
<path d="M3770 3476 c-81 -12 -97 -29 -50 -53 38 -19 94 -16 124 8 27 21 36
60 14 58 -7 -1 -47 -7 -88 -13z"/>
<path d="M1831 2774 c-41 -18 -52 -27 -43 -36 22 -22 74 -13 99 16 21 25 23
47 5 45 -4 0 -31 -11 -61 -25z"/>
<path d="M1284 2695 c-4 -9 -2 -21 4 -27 15 -15 44 -1 40 19 -4 23 -36 29 -44
8z"/>
<path d="M1476 2684 c-22 -21 -20 -31 8 -49 19 -13 29 -14 45 -6 22 12 36 45
26 61 -10 16 -62 12 -79 -6z"/>
<path d="M3136 2526 c-35 -54 -55 -96 -46 -96 12 0 79 91 80 108 0 20 -16 14
-34 -12z"/>
<path d="M2385 2120 c30 -8 152 -13 144 -6 -2 2 -42 6 -89 9 -51 3 -73 2 -55
-3z"/>
<path d="M5988 30 c-7 -24 -3 -38 8 -28 3 4 4 17 2 30 l-3 23 -7 -25z"/>
</g>
</svg>
