<?xml version="1.0" standalone="no"?>
<!DOCTYPE svg PUBLIC "-//W3C//DTD SVG 20010904//EN"
 "http://www.w3.org/TR/2001/REC-SVG-20010904/DTD/svg10.dtd">
<svg version="1.0" xmlns="http://www.w3.org/2000/svg"
 width="475.000000pt" height="475.000000pt" viewBox="0 0 475.000000 475.000000"
 preserveAspectRatio="xMidYMid meet">
<metadata>
Created by potrace 1.14, written by Peter Selinger 2001-2017
</metadata>
<g transform="translate(0.000000,475.000000) scale(0.100000,-0.100000)"
fill="#000000" stroke="none">
<path d="M860 4611 c0 -5 5 -13 10 -16 6 -3 10 -2 10 4 0 5 -4 13 -10 16 -5 3
-10 2 -10 -4z"/>
<path d="M832 4585 c0 -16 2 -22 5 -12 2 9 2 23 0 30 -3 6 -5 -1 -5 -18z"/>
<path d="M811 4440 c-7 -63 -11 -137 -9 -165 4 -47 5 -46 6 15 1 36 7 104 13
153 6 48 9 93 6 100 -2 6 -9 -40 -16 -103z"/>
<path d="M2378 4513 c23 -2 59 -2 80 0 20 2 1 4 -43 4 -44 0 -61 -2 -37 -4z"/>
<path d="M2273 4503 c9 -2 23 -2 30 0 6 3 -1 5 -18 5 -16 0 -22 -2 -12 -5z"/>
<path d="M2570 4500 c36 -4 94 -10 130 -13 l65 -6 -75 14 c-41 8 -100 13 -130
13 l-55 -1 65 -7z"/>
<path d="M2193 4493 c9 -2 25 -2 35 0 9 3 1 5 -18 5 -19 0 -27 -2 -17 -5z"/>
<path d="M2138 4483 c7 -3 16 -2 19 1 4 3 -2 6 -13 5 -11 0 -14 -3 -6 -6z"/>
<path d="M2065 4470 c-13 -5 -14 -9 -5 -9 8 0 24 4 35 9 13 5 14 9 5 9 -8 0
-24 -4 -35 -9z"/>
<path d="M2790 4473 c14 -2 63 -13 109 -24 46 -11 86 -17 88 -15 6 6 -171 46
-198 45 -24 -2 -24 -2 1 -6z"/>
<path d="M2018 4453 c7 -3 16 -2 19 1 4 3 -2 6 -13 5 -11 0 -14 -3 -6 -6z"/>
<path d="M1955 4440 c-13 -5 -14 -9 -5 -9 8 0 24 4 35 9 13 5 14 9 5 9 -8 0
-24 -4 -35 -9z"/>
<path d="M1885 4420 c-13 -5 -14 -9 -5 -9 8 0 24 4 35 9 13 5 14 9 5 9 -8 0
-24 -4 -35 -9z"/>
<path d="M3210 4350 c8 -5 20 -10 25 -10 6 0 3 5 -5 10 -8 5 -19 10 -25 10 -5
0 -3 -5 5 -10z"/>
<path d="M1640 4330 c-8 -5 -10 -10 -5 -10 6 0 17 5 25 10 8 5 11 10 5 10 -5
0 -17 -5 -25 -10z"/>
<path d="M3345 4289 c55 -28 122 -64 149 -81 26 -16 50 -27 53 -25 9 10 -271
158 -295 157 -4 -1 38 -23 93 -51z"/>
<path d="M1455 4242 c-71 -37 -158 -87 -193 -110 -54 -37 -65 -42 -79 -30 -15
12 -15 11 -3 -8 13 -21 14 -21 87 29 41 27 133 81 206 118 73 38 128 68 122
68 -5 0 -68 -30 -140 -67z"/>
<path d="M3695 4062 c27 -29 51 -52 52 -52 9 0 -17 37 -39 55 -53 47 -60 46
-13 -3z"/>
<path d="M776 4039 c-3 -34 -6 -128 -6 -209 l0 -146 -56 -75 c-30 -41 -60 -83
-66 -94 -15 -29 2 -9 61 73 30 40 56 71 59 68 2 -3 11 -47 18 -98 14 -94 55
-241 75 -268 9 -12 9 -11 3 5 -64 174 -88 356 -81 613 3 105 4 192 3 192 -2 0
-6 -28 -10 -61z"/>
<path d="M4365 4020 c-14 -7 -10 -8 17 -4 75 12 98 -16 57 -72 l-21 -29 26 28
c14 15 26 37 26 47 0 34 -58 51 -105 30z"/>
<path d="M3766 4000 c4 -8 29 -37 54 -65 26 -27 62 -66 80 -85 18 -19 13 -11
-10 18 -53 66 -134 153 -124 132z"/>
<path d="M4375 3905 c-16 -8 -23 -14 -14 -15 8 0 24 7 35 15 23 18 18 18 -21
0z"/>
<path d="M4297 3899 c7 -7 15 -10 18 -7 3 3 -2 9 -12 12 -14 6 -15 5 -6 -5z"/>
<path d="M3955 3773 c15 -24 30 -43 32 -43 7 0 -31 61 -46 73 -8 7 -2 -7 14
-30z"/>
<path d="M1280 3650 c0 -84 2 -151 5 -148 7 7 7 289 0 296 -3 3 -5 -64 -5
-148z"/>
<path d="M1379 3723 c-13 -17 -13 -17 6 -3 11 8 22 16 24 17 2 2 0 3 -6 3 -6
0 -17 -8 -24 -17z"/>
<path d="M4675 3643 c-36 -42 -65 -81 -65 -87 0 -6 8 1 17 14 9 14 41 53 71
88 30 34 52 62 49 62 -4 0 -36 -34 -72 -77z"/>
<path d="M4024 3665 c37 -57 82 -141 131 -247 27 -59 51 -105 53 -103 12 12
-165 356 -191 372 -7 4 -3 -6 7 -22z"/>
<path d="M1830 3640 c-8 -5 -10 -10 -5 -10 6 0 17 5 25 10 8 5 11 10 5 10 -5
0 -17 -5 -25 -10z"/>
<path d="M1780 3620 c-8 -5 -10 -10 -5 -10 6 0 17 5 25 10 8 5 11 10 5 10 -5
0 -17 -5 -25 -10z"/>
<path d="M1720 3595 c-14 -8 -20 -14 -15 -14 6 0 21 6 35 14 14 8 21 14 15 14
-5 0 -21 -6 -35 -14z"/>
<path d="M4601 3524 c0 -11 3 -14 6 -6 3 7 2 16 -1 19 -3 4 -6 -2 -5 -13z"/>
<path d="M357 3519 c7 -7 15 -10 18 -7 3 3 -2 9 -12 12 -14 6 -15 5 -6 -5z"/>
<path d="M1538 3504 c-38 -20 -36 -28 2 -9 17 9 30 18 30 20 0 7 -1 6 -32 -11z"/>
<path d="M616 3466 c-23 -36 -20 -44 5 -12 12 15 19 29 16 32 -2 2 -12 -7 -21
-20z"/>
<path d="M1267 3456 c-10 -45 -71 -165 -185 -359 -44 -75 -77 -135 -72 -132 5
3 40 58 78 123 74 125 141 197 262 286 74 55 84 63 53 47 -12 -6 -65 -45 -118
-87 -54 -41 -95 -71 -93 -67 2 4 23 47 47 95 25 50 41 96 39 110 -3 18 -5 15
-11 -16z"/>
<path d="M4593 3450 c0 -25 2 -35 4 -22 2 12 2 32 0 45 -2 12 -4 2 -4 -23z"/>
<path d="M1474 3464 c-18 -14 -18 -15 4 -4 12 6 22 13 22 15 0 8 -5 6 -26 -11z"/>
<path d="M500 3446 c0 -2 8 -10 18 -17 15 -13 16 -12 3 4 -13 16 -21 21 -21
13z"/>
<path d="M4593 3345 c0 -33 2 -45 4 -27 2 18 2 45 0 60 -2 15 -4 0 -4 -33z"/>
<path d="M4216 3280 c3 -14 11 -32 16 -40 6 -10 7 -7 2 10 -3 14 -11 32 -16
40 -6 10 -7 7 -2 -10z"/>
<path d="M4602 3250 c0 -14 2 -19 5 -12 2 6 2 18 0 25 -3 6 -5 1 -5 -13z"/>
<path d="M858 3222 c-13 -15 -35 -43 -47 -62 l-22 -35 23 30 c13 16 36 42 51
58 15 16 26 31 24 33 -2 2 -15 -9 -29 -24z"/>
<path d="M4246 3200 c3 -14 11 -32 16 -40 6 -10 7 -7 2 10 -3 14 -11 32 -16
40 -6 10 -7 7 -2 -10z"/>
<path d="M770 3100 c-6 -11 -8 -20 -6 -20 3 0 10 9 16 20 6 11 8 20 6 20 -3 0
-10 -9 -16 -20z"/>
<path d="M892 3075 c0 -16 2 -22 5 -12 2 9 2 23 0 30 -3 6 -5 -1 -5 -18z"/>
<path d="M731 3058 c-1 -33 4 -35 20 -7 6 13 7 19 1 15 -6 -3 -13 0 -15 6 -3
7 -6 1 -6 -14z"/>
<path d="M608 2993 c7 -3 16 -2 19 1 4 3 -2 6 -13 5 -11 0 -14 -3 -6 -6z"/>
<path d="M481 2945 c-72 -35 -91 -41 -87 -27 2 9 7 27 11 40 4 13 2 22 -4 22
-6 0 -10 -3 -9 -7 1 -5 -1 -24 -5 -44 -6 -30 -19 -44 -90 -92 -99 -68 -289
-226 -295 -247 -3 -8 19 8 49 36 149 139 318 257 473 330 39 18 66 33 60 34
-6 0 -52 -20 -103 -45z"/>
<path d="M1521 2954 c0 -11 3 -14 6 -6 3 7 2 16 -1 19 -3 4 -6 -2 -5 -13z"/>
<path d="M712 2930 c0 -14 2 -19 5 -12 2 6 2 18 0 25 -3 6 -5 1 -5 -13z"/>
<path d="M154 2914 c-18 -14 -18 -14 6 -3 31 14 36 19 24 19 -6 0 -19 -7 -30
-16z"/>
<path d="M955 2899 c-4 -6 -5 -12 -2 -15 2 -3 7 2 10 11 7 17 1 20 -8 4z"/>
<path d="M89 2873 c-13 -16 -12 -17 4 -4 9 7 17 15 17 17 0 8 -8 3 -21 -13z"/>
<path d="M936 2853 c-6 -14 -5 -15 5 -6 7 7 10 15 7 18 -3 3 -9 -2 -12 -12z"/>
<path d="M3005 2837 c3 -11 15 -58 26 -105 24 -100 31 -113 25 -53 -2 23 -6
44 -10 48 -3 3 -6 16 -7 27 0 12 -9 39 -20 61 -11 22 -17 32 -14 22z"/>
<path d="M898 2793 c-54 -82 -60 -93 -55 -93 4 0 18 20 71 103 10 15 16 27 13
27 -2 0 -15 -17 -29 -37z"/>
<path d="M710 2784 c0 -16 5 -36 10 -44 6 -10 7 -2 3 25 -7 49 -13 58 -13 19z"/>
<path d="M4400 2775 c0 -5 5 -17 10 -25 5 -8 10 -10 10 -5 0 6 -5 17 -10 25
-5 8 -10 11 -10 5z"/>
<path d="M730 2714 c0 -6 7 -19 16 -30 14 -18 14 -18 3 6 -14 31 -19 36 -19
24z"/>
<path d="M4531 2694 c0 -11 3 -14 6 -6 3 7 2 16 -1 19 -3 4 -6 -2 -5 -13z"/>
<path d="M803 2658 c-18 -18 -53 -58 -79 -88 -48 -56 -96 -96 -264 -220 l-94
-70 -121 -1 c-66 -1 -149 -5 -185 -9 -47 -6 -30 -7 63 -4 l127 5 0 -28 c0 -15
-7 -86 -15 -157 -29 -263 -40 -542 -27 -712 22 -271 78 -503 147 -599 19 -28
35 -46 35 -42 0 5 -11 23 -24 40 -51 66 -96 220 -127 432 -14 98 -19 185 -19
355 0 211 5 301 30 560 16 158 12 150 69 150 34 0 57 7 79 23 264 189 295 216
384 325 64 77 71 92 21 40z"/>
<path d="M4521 2654 c0 -11 3 -14 6 -6 3 7 2 16 -1 19 -3 4 -6 -2 -5 -13z"/>
<path d="M3061 2614 c0 -11 3 -14 6 -6 3 7 2 16 -1 19 -3 4 -6 -2 -5 -13z"/>
<path d="M4501 2584 c-7 -25 -10 -48 -8 -51 3 -2 10 17 16 43 7 25 10 48 8 51
-3 2 -10 -17 -16 -43z"/>
<path d="M3072 2570 c0 -14 2 -19 5 -12 2 6 2 18 0 25 -3 6 -5 1 -5 -13z"/>
<path d="M3082 2520 c0 -14 2 -19 5 -12 2 6 2 18 0 25 -3 6 -5 1 -5 -13z"/>
<path d="M4470 2470 c-11 -44 -10 -54 6 -78 30 -47 144 -149 144 -129 0 2 -22
20 -49 40 -26 20 -61 55 -76 77 -26 37 -27 42 -16 86 7 26 10 48 8 51 -3 2
-10 -19 -17 -47z"/>
<path d="M3092 2475 c-1 -11 3 -38 7 -60 7 -34 9 -35 9 -10 0 35 -15 101 -16
70z"/>
<path d="M1448 2374 c-45 -23 -72 -64 -54 -81 3 -4 6 4 6 16 0 15 14 31 50 53
28 17 50 33 50 34 0 6 -1 5 -52 -22z"/>
<path d="M3112 2330 c0 -19 2 -27 5 -17 2 9 2 25 0 35 -3 9 -5 1 -5 -18z"/>
<path d="M3123 2220 c0 -41 2 -58 4 -37 2 20 2 54 0 75 -2 20 -4 3 -4 -38z"/>
<path d="M1381 2264 c0 -11 3 -14 6 -6 3 7 2 16 -1 19 -3 4 -6 -2 -5 -13z"/>
<path d="M1371 2224 c0 -11 3 -14 6 -6 3 7 2 16 -1 19 -3 4 -6 -2 -5 -13z"/>
<path d="M1357 2165 c-4 -22 -6 -53 -6 -70 1 -16 5 -3 10 30 10 67 6 102 -4
40z"/>
<path d="M3190 2113 c-27 -52 -33 -46 -14 15 4 15 2 15 -30 2 -16 -6 -26 -17
-26 -29 0 -27 -39 -49 -51 -30 -5 8 -9 17 -9 22 0 21 -21 3 -27 -25 -7 -29
-19 -38 -89 -73 -71 -35 -215 -105 -235 -113 -4 -2 -9 9 -11 24 l-3 26 -25
-21 c-17 -15 -21 -24 -13 -27 8 -4 11 -15 7 -30 -7 -29 -4 -29 38 -5 58 34
324 127 418 146 100 20 169 47 186 73 l18 27 12 -30 c7 -17 13 -23 14 -14 0 8
-9 34 -20 56 -19 40 -21 41 -52 32 -53 -15 -64 -12 -43 11 16 18 16 20 2 20
-10 0 -29 -23 -47 -57z"/>
<path d="M4635 2150 c10 -33 25 -49 25 -26 0 9 -7 25 -16 34 -15 15 -16 14 -9
-8z"/>
<path d="M3336 2141 c-4 -7 -5 -15 -2 -18 9 -9 19 4 14 18 -4 11 -6 11 -12 0z"/>
<path d="M3516 2073 c-6 -14 -5 -15 5 -6 7 7 10 15 7 18 -3 3 -9 -2 -12 -12z"/>
<path d="M4642 2023 c-2 -54 1 -64 19 -73 11 -7 23 -9 26 -7 2 3 -5 8 -16 12
-17 5 -21 16 -24 68 l-3 62 -2 -62z"/>
<path d="M1341 2034 c0 -11 3 -14 6 -6 3 7 2 16 -1 19 -3 4 -6 -2 -5 -13z"/>
<path d="M1352 1960 c0 -19 2 -27 5 -17 2 9 2 25 0 35 -3 9 -5 1 -5 -18z"/>
<path d="M4711 1918 c15 -30 24 -38 16 -15 -5 12 -1 17 11 17 15 0 15 2 2 10
-28 18 -42 12 -29 -12z"/>
<path d="M1740 1919 c-86 -17 -189 -77 -270 -158 -42 -42 -82 -91 -89 -109 -8
-19 -29 -41 -50 -53 -33 -18 -34 -20 -8 -16 32 5 32 5 11 -36 l-17 -31 62 -58
c51 -48 115 -84 130 -72 2 2 -12 21 -32 43 -20 22 -39 52 -43 66 -8 34 18 102
55 141 30 32 115 104 122 104 2 0 2 -23 0 -51 -3 -49 -2 -50 18 -39 12 6 34
10 49 8 52 -6 33 -69 -32 -105 -18 -10 -18 -12 1 -54 32 -71 100 -142 86 -90
-11 41 65 169 109 183 7 3 7 16 0 39 -12 46 1 77 25 57 9 -7 24 -31 34 -53 10
-22 19 -32 19 -22 0 20 27 22 65 5 22 -10 30 -25 26 -50 0 -5 3 -8 9 -8 30 0
-52 221 -91 246 -17 10 -9 26 11 21 29 -8 24 4 -15 36 -19 15 -35 37 -35 47 0
18 -7 20 -52 19 -29 -1 -73 -5 -98 -10z"/>
<path d="M392 1890 c0 -14 2 -19 5 -12 2 6 2 18 0 25 -3 6 -5 1 -5 -13z"/>
<path d="M1290 1891 c0 -6 4 -13 10 -16 6 -3 7 1 4 9 -7 18 -14 21 -14 7z"/>
<path d="M1325 1840 c10 -11 20 -20 23 -20 3 0 -3 9 -13 20 -10 11 -20 20 -23
20 -3 0 3 -9 13 -20z"/>
<path d="M3512 1820 c0 -14 2 -19 5 -12 2 6 2 18 0 25 -3 6 -5 1 -5 -13z"/>
<path d="M421 1794 c0 -11 3 -14 6 -6 3 7 2 16 -1 19 -3 4 -6 -2 -5 -13z"/>
<path d="M3750 1772 c0 -10 -13 -36 -30 -58 -33 -43 -41 -74 -9 -34 20 25 59
94 59 105 0 3 -4 5 -10 5 -5 0 -10 -8 -10 -18z"/>
<path d="M3522 1725 c0 -16 2 -22 5 -12 2 9 2 23 0 30 -3 6 -5 -1 -5 -18z"/>
<path d="M1096 1711 c-4 -5 16 -45 43 -88 28 -43 49 -88 47 -98 -2 -11 -1 -14
1 -7 3 6 8 12 11 11 9 0 79 -89 175 -223 73 -101 196 -320 186 -330 -10 -11
-207 147 -235 189 -38 55 -51 69 -34 35 29 -56 57 -84 173 -171 67 -51 130
-105 140 -122 49 -79 236 -185 422 -238 44 -13 82 -25 85 -27 3 -2 -4 -11 -16
-21 -11 -9 -29 -30 -39 -46 -13 -19 -4 -13 25 18 l45 48 90 -20 c117 -26 269
-41 409 -41 109 0 114 1 167 33 l55 33 48 -38 c26 -21 52 -38 58 -38 6 0 -11
15 -38 33 -26 18 -49 38 -51 43 -2 6 22 31 54 57 32 25 96 82 143 127 92 89
36 48 -89 -64 -41 -37 -109 -90 -150 -118 l-76 -50 -210 5 c-186 5 -225 9
-340 35 -174 40 -239 62 -375 129 -156 77 -198 121 -283 296 -61 125 -134 233
-336 496 -27 35 -60 85 -74 112 -14 28 -28 45 -31 40z"/>
<path d="M711 1684 c0 -11 3 -14 6 -6 3 7 2 16 -1 19 -3 4 -6 -2 -5 -13z"/>
<path d="M3532 1665 c0 -16 2 -22 5 -12 2 9 2 23 0 30 -3 6 -5 -1 -5 -18z"/>
<path d="M461 1674 c-1 -15 40 -136 45 -131 2 2 -7 35 -20 73 -14 38 -25 64
-25 58z"/>
<path d="M4072 1615 c0 -16 2 -22 5 -12 2 9 2 23 0 30 -3 6 -5 -1 -5 -18z"/>
<path d="M730 1607 c0 -14 5 -29 10 -32 7 -4 8 3 4 22 -9 38 -14 42 -14 10z"/>
<path d="M3544 1606 c2 -19 -5 -47 -20 -75 -14 -25 -47 -93 -74 -151 -27 -58
-64 -129 -81 -157 -17 -29 -29 -53 -26 -53 3 0 15 17 28 38 12 20 30 46 40 57
9 11 38 70 64 130 74 175 77 180 89 123 3 -17 8 -29 11 -27 2 3 -5 36 -15 74
-11 39 -18 57 -16 41z"/>
<path d="M4331 1604 c0 -11 3 -14 6 -6 3 7 2 16 -1 19 -3 4 -6 -2 -5 -13z"/>
<path d="M3160 1579 c-7 -11 -9 -23 -6 -27 3 -3 6 -1 6 4 0 5 4 16 10 24 7 12
12 11 32 -5 l23 -20 -19 23 c-24 27 -32 28 -46 1z"/>
<path d="M1921 1564 c0 -11 3 -14 6 -6 3 7 2 16 -1 19 -3 4 -6 -2 -5 -13z"/>
<path d="M3662 1555 c0 -16 2 -22 5 -12 2 9 2 23 0 30 -3 6 -5 -1 -5 -18z"/>
<path d="M3840 1576 c0 -2 8 -10 18 -17 15 -13 16 -12 3 4 -13 16 -21 21 -21
13z"/>
<path d="M3258 1550 c18 -8 22 -15 17 -32 -4 -13 -8 -25 -8 -28 -1 -3 6 -19
16 -36 18 -35 14 -44 -19 -44 -14 0 -31 -12 -44 -30 -29 -40 -48 -38 -56 6 -4
24 -14 39 -30 46 -28 13 -29 16 -8 48 l16 25 -22 -24 c-24 -28 -22 -42 8 -56
12 -5 22 -18 22 -28 0 -26 18 -57 34 -57 8 0 26 14 39 30 16 19 35 30 51 30
34 0 40 14 22 49 -9 16 -15 47 -13 68 2 34 -1 38 -23 40 l-25 3 23 -10z"/>
<path d="M1915 1530 c-4 -6 -11 -7 -17 -4 -7 4 -8 2 -4 -5 6 -9 11 -9 22 0 14
11 18 19 10 19 -3 0 -8 -5 -11 -10z"/>
<path d="M510 1527 c0 -13 53 -138 56 -134 2 2 -8 33 -22 68 -25 62 -34 79
-34 66z"/>
<path d="M761 1514 c0 -11 3 -14 6 -6 3 7 2 16 -1 19 -3 4 -6 -2 -5 -13z"/>
<path d="M363 1420 c0 -36 2 -50 4 -32 2 17 2 47 0 65 -2 17 -4 3 -4 -33z"/>
<path d="M1176 1448 c6 -37 54 -161 60 -155 3 2 -7 29 -21 61 -14 31 -25 70
-25 86 0 16 -4 32 -10 35 -6 4 -8 -7 -4 -27z"/>
<path d="M4731 1464 c0 -11 3 -14 6 -6 3 7 2 16 -1 19 -3 4 -6 -2 -5 -13z"/>
<path d="M3681 1444 c0 -11 3 -14 6 -6 3 7 2 16 -1 19 -3 4 -6 -2 -5 -13z"/>
<path d="M1955 1424 c-18 -16 -22 -22 -9 -15 18 9 53 42 43 41 -2 -1 -17 -12
-34 -26z"/>
<path d="M3590 1446 c0 -11 30 -66 36 -66 2 0 -3 15 -12 33 -19 36 -24 44 -24
33z"/>
<path d="M4742 1420 c0 -14 2 -19 5 -12 2 6 2 18 0 25 -3 6 -5 1 -5 -13z"/>
<path d="M791 1420 c0 -8 4 -22 9 -30 12 -18 12 -2 0 25 -6 13 -9 15 -9 5z"/>
<path d="M991 1394 c0 -11 3 -14 6 -6 3 7 2 16 -1 19 -3 4 -6 -2 -5 -13z"/>
<path d="M4661 1374 c0 -11 3 -14 6 -6 3 7 2 16 -1 19 -3 4 -6 -2 -5 -13z"/>
<path d="M570 1368 c0 -7 -15 -28 -32 -48 -31 -33 -30 -32 9 4 23 22 40 43 37
48 -7 12 -14 10 -14 -4z"/>
<path d="M1788 1373 c6 -2 18 -2 25 0 6 3 1 5 -13 5 -14 0 -19 -2 -12 -5z"/>
<path d="M1848 1373 c7 -3 16 -2 19 1 4 3 -2 6 -13 5 -11 0 -14 -3 -6 -6z"/>
<path d="M1001 1354 c0 -11 3 -14 6 -6 3 7 2 16 -1 19 -3 4 -6 -2 -5 -13z"/>
<path d="M361 1334 c0 -11 3 -14 6 -6 3 7 2 16 -1 19 -3 4 -6 -2 -5 -13z"/>
<path d="M826 1320 c4 -14 13 -38 20 -55 11 -24 13 -25 8 -5 -4 14 -13 39 -20
55 -11 24 -13 25 -8 5z"/>
<path d="M4373 1280 c0 -25 2 -35 4 -22 2 12 2 32 0 45 -2 12 -4 2 -4 -23z"/>
<path d="M580 1279 c-67 -29 -72 -41 -6 -14 35 15 37 15 45 -7 29 -75 44 -108
47 -105 2 2 -8 32 -22 66 -24 60 -24 64 -7 77 25 18 18 16 -57 -17z"/>
<path d="M1021 1290 c0 -8 4 -24 9 -35 5 -13 9 -14 9 -5 0 8 -4 24 -9 35 -5
13 -9 14 -9 5z"/>
<path d="M3680 1276 c0 -2 8 -10 18 -17 15 -13 16 -12 3 4 -13 16 -21 21 -21
13z"/>
<path d="M4512 1260 c0 -14 2 -19 5 -12 2 6 2 18 0 25 -3 6 -5 1 -5 -13z"/>
<path d="M4696 1245 c-3 -8 -1 -15 4 -15 6 0 10 7 10 15 0 8 -2 15 -4 15 -2 0
-6 -7 -10 -15z"/>
<path d="M368 1213 c6 -65 10 -70 11 -15 0 28 -3 52 -7 52 -4 0 -6 -17 -4 -37z"/>
<path d="M488 1243 c7 -3 16 -2 19 1 4 3 -2 6 -13 5 -11 0 -14 -3 -6 -6z"/>
<path d="M413 1233 c9 -2 23 -2 30 0 6 3 -1 5 -18 5 -16 0 -22 -2 -12 -5z"/>
<path d="M4372 1210 c0 -14 2 -19 5 -12 2 6 2 18 0 25 -3 6 -5 1 -5 -13z"/>
<path d="M3771 1203 c0 -5 14 -19 32 -32 l32 -25 -29 32 c-31 33 -36 37 -35
25z"/>
<path d="M876 1180 c3 -14 11 -32 16 -40 6 -10 7 -7 2 10 -3 14 -11 32 -16 40
-6 10 -7 7 -2 -10z"/>
<path d="M4626 1152 l-19 -27 24 22 c12 12 21 24 18 27 -2 2 -13 -8 -23 -22z"/>
<path d="M1061 1160 c0 -8 4 -22 9 -30 12 -18 12 -2 0 25 -6 13 -9 15 -9 5z"/>
<path d="M671 1140 c0 -3 11 -34 25 -70 13 -36 22 -51 19 -35 -6 28 -43 116
-44 105z"/>
<path d="M3356 1125 c-9 -26 -7 -32 5 -12 6 10 9 21 6 23 -2 3 -7 -2 -11 -11z"/>
<path d="M4171 1124 c0 -11 3 -14 6 -6 3 7 2 16 -1 19 -3 4 -6 -2 -5 -13z"/>
<path d="M383 1085 c0 -27 2 -38 4 -22 2 15 2 37 0 50 -2 12 -4 0 -4 -28z"/>
<path d="M900 1116 c0 -15 85 -206 136 -306 73 -144 163 -277 238 -355 35 -36
66 -65 71 -65 4 0 -22 29 -58 65 -109 107 -233 314 -332 550 -44 105 -55 127
-55 111z"/>
<path d="M4701 1094 c0 -11 3 -14 6 -6 3 7 2 16 -1 19 -3 4 -6 -2 -5 -13z"/>
<path d="M4372 1080 c0 -14 2 -19 5 -12 2 6 2 18 0 25 -3 6 -5 1 -5 -13z"/>
<path d="M3331 1059 c-6 -18 -11 -37 -10 -43 0 -6 7 7 15 28 8 22 12 41 10 43
-2 2 -9 -10 -15 -28z"/>
<path d="M1096 1060 c3 -14 11 -32 16 -40 6 -10 7 -7 2 10 -3 14 -11 32 -16
40 -6 10 -7 7 -2 -10z"/>
<path d="M3984 1059 c-19 -22 -19 -22 4 -8 12 8 22 17 22 21 0 12 -6 9 -26
-13z"/>
<path d="M3874 1048 l-19 -23 23 19 c21 18 27 26 19 26 -2 0 -12 -10 -23 -22z"/>
<path d="M392 1000 c0 -19 2 -27 5 -17 2 9 2 25 0 35 -3 9 -5 1 -5 -18z"/>
<path d="M4006 1003 c-6 -14 -5 -15 5 -6 7 7 10 15 7 18 -3 3 -9 -2 -12 -12z"/>
<path d="M721 990 c0 -8 4 -24 9 -35 l9 -20 0 20 c0 11 -4 27 -9 35 -9 13 -10
13 -9 0z"/>
<path d="M1120 995 c0 -5 5 -17 10 -25 5 -8 10 -10 10 -5 0 6 -5 17 -10 25 -5
8 -10 11 -10 5z"/>
<path d="M3311 984 c0 -11 3 -14 6 -6 3 7 2 16 -1 19 -3 4 -6 -2 -5 -13z"/>
<path d="M4586 985 c4 -8 8 -15 10 -15 2 0 4 7 4 15 0 8 -4 15 -10 15 -5 0 -7
-7 -4 -15z"/>
<path d="M402 935 c0 -16 2 -22 5 -12 2 9 2 23 0 30 -3 6 -5 -1 -5 -18z"/>
<path d="M3860 944 c140 -28 235 -43 295 -48 l60 -5 -53 10 c-29 6 -50 15 -47
20 4 5 -7 6 -22 3 -16 -3 -53 -1 -83 5 -85 17 -91 18 -160 24 l-65 6 75 -15z"/>
<path d="M1140 945 c0 -5 5 -17 10 -25 5 -8 10 -10 10 -5 0 6 -5 17 -10 25 -5
8 -10 11 -10 5z"/>
<path d="M4715 923 l-18 -28 27 24 c28 26 31 31 17 31 -5 0 -17 -12 -26 -27z"/>
<path d="M4365 900 c-27 -5 -72 -9 -100 -11 l-50 -2 40 -6 c22 -4 54 -3 70 1
17 4 75 12 130 16 92 9 94 9 30 9 -38 0 -92 -3 -120 -7z"/>
<path d="M411 884 c0 -11 3 -14 6 -6 3 7 2 16 -1 19 -3 4 -6 -2 -5 -13z"/>
<path d="M4583 893 c9 -2 25 -2 35 0 9 3 1 5 -18 5 -19 0 -27 -2 -17 -5z"/>
<path d="M4648 883 c6 -2 18 -2 25 0 6 3 1 5 -13 5 -14 0 -19 -2 -12 -5z"/>
<path d="M4698 873 c7 -3 16 -2 19 1 4 3 -2 6 -13 5 -11 0 -14 -3 -6 -6z"/>
<path d="M3689 853 c-13 -16 -12 -17 4 -4 16 13 21 21 13 21 -2 0 -10 -8 -17
-17z"/>
<path d="M421 844 c0 -11 3 -14 6 -6 3 7 2 16 -1 19 -3 4 -6 -2 -5 -13z"/>
<path d="M1180 856 c0 -11 40 -86 45 -86 3 0 -4 19 -16 43 -23 45 -29 54 -29
43z"/>
<path d="M1291 790 c14 -31 19 -36 19 -24 0 6 -7 19 -16 30 -14 18 -14 18 -3
-6z"/>
<path d="M440 785 c0 -5 5 -17 10 -25 5 -8 10 -10 10 -5 0 6 -5 17 -10 25 -5
8 -10 11 -10 5z"/>
<path d="M751 764 c0 -11 3 -14 6 -6 3 7 2 16 -1 19 -3 4 -6 -2 -5 -13z"/>
<path d="M3703 745 c0 -22 2 -30 4 -17 2 12 2 30 0 40 -3 9 -5 -1 -4 -23z"/>
<path d="M435 690 c10 -11 20 -20 23 -20 3 0 -3 9 -13 20 -10 11 -20 20 -23
20 -3 0 3 -9 13 -20z"/>
<path d="M1748 673 c16 -21 40 -47 53 -58 13 -11 1 6 -26 38 -55 64 -73 77
-27 20z"/>
<path d="M762 675 c0 -16 2 -22 5 -12 2 9 2 23 0 30 -3 6 -5 -1 -5 -18z"/>
<path d="M490 686 c0 -2 8 -10 18 -17 15 -13 16 -12 3 4 -13 16 -21 21 -21 13z"/>
<path d="M3174 648 l-29 -33 33 29 c17 17 32 31 32 33 0 8 -8 1 -36 -29z"/>
<path d="M3692 660 c0 -14 2 -19 5 -12 2 6 2 18 0 25 -3 6 -5 1 -5 -13z"/>
<path d="M530 641 c0 -9 60 -44 66 -38 1 1 -13 12 -32 25 -19 12 -34 18 -34
13z"/>
<path d="M1409 612 c42 -61 176 -189 226 -216 28 -15 42 -21 31 -14 -87 60
-142 107 -191 165 -76 88 -93 105 -66 65z"/>
<path d="M3677 611 c-4 -17 -3 -21 5 -13 5 5 8 16 6 23 -3 8 -7 3 -11 -10z"/>
<path d="M772 600 c0 -14 2 -19 5 -12 2 6 2 18 0 25 -3 6 -5 1 -5 -13z"/>
<path d="M1362 546 c36 -53 164 -176 182 -176 6 0 0 9 -14 19 -37 28 -130 120
-169 166 l-33 40 34 -49z"/>
<path d="M1835 570 c10 -11 20 -18 23 -15 7 6 -18 35 -31 35 -5 0 -2 -9 8 -20z"/>
<path d="M782 530 c0 -14 2 -19 5 -12 2 6 2 18 0 25 -3 6 -5 1 -5 -13z"/>
<path d="M2004 499 c-14 -22 -24 -43 -22 -44 2 -2 16 16 31 40 33 56 26 59 -9
4z"/>
<path d="M792 480 c0 -14 2 -19 5 -12 2 6 2 18 0 25 -3 6 -5 1 -5 -13z"/>
<path d="M1210 455 c0 -5 5 -17 10 -25 5 -8 10 -10 10 -5 0 6 -5 17 -10 25 -5
8 -10 11 -10 5z"/>
<path d="M801 434 c0 -11 3 -14 6 -6 3 7 2 16 -1 19 -3 4 -6 -2 -5 -13z"/>
<path d="M3610 425 c0 -8 2 -15 4 -15 2 0 6 7 10 15 3 8 1 15 -4 15 -6 0 -10
-7 -10 -15z"/>
<path d="M1740 426 c0 -2 8 -10 18 -17 15 -13 16 -12 3 4 -13 16 -21 21 -21
13z"/>
<path d="M811 399 c-3 -45 132 -410 146 -395 3 2 -7 27 -21 54 -22 43 -105
278 -119 337 -3 14 -5 15 -6 4z"/>
<path d="M1367 379 c7 -7 15 -10 18 -7 3 3 -2 9 -12 12 -14 6 -15 5 -6 -5z"/>
<path d="M1938 379 c-2 -7 -20 -19 -39 -26 -30 -11 -30 -13 -6 -9 15 2 27 1
27 -1 0 -2 -19 -38 -41 -79 -23 -41 -40 -77 -37 -79 2 -2 27 41 57 96 29 55
51 103 48 105 -3 3 -7 0 -9 -7z"/>
<path d="M1240 376 c0 -6 66 -46 75 -46 11 0 -36 35 -57 43 -10 3 -18 5 -18 3z"/>
<path d="M1824 366 c11 -9 24 -16 30 -16 12 0 7 5 -24 19 -24 11 -24 11 -6 -3z"/>
<path d="M1593 343 c9 -2 25 -2 35 0 9 3 1 5 -18 5 -19 0 -27 -2 -17 -5z"/>
<path d="M1115 320 c10 -11 20 -20 22 -20 2 0 -1 9 -7 20 -6 11 -16 20 -22 20
-6 0 -3 -9 7 -20z"/>
<path d="M3185 194 c-27 -25 -43 -42 -34 -37 24 12 104 83 93 83 -5 0 -31 -21
-59 -46z"/>
<path d="M3505 229 c-4 -6 -5 -12 -2 -15 2 -3 7 2 10 11 7 17 1 20 -8 4z"/>
<path d="M2855 189 c-4 -6 -4 -13 -1 -16 3 -4 6 -1 6 5 0 22 57 12 115 -18 32
-17 52 -24 46 -16 -34 40 -150 72 -166 45z"/>
<path d="M3425 190 c-4 -6 -11 -8 -16 -5 -5 4 -9 -1 -9 -9 0 -11 -14 -16 -47
-19 -44 -3 -43 -4 13 -5 58 -2 62 -1 66 23 6 27 3 31 -7 15z"/>
<path d="M986 150 c3 -14 11 -32 16 -40 6 -10 7 -7 2 10 -3 14 -11 32 -16 40
-6 10 -7 7 -2 -10z"/>
<path d="M1796 89 c-20 -45 -35 -83 -33 -85 2 -2 20 33 40 78 21 45 35 83 34
85 -2 2 -21 -33 -41 -78z"/>
<path d="M2842 140 c0 -14 2 -19 5 -12 2 6 2 18 0 25 -3 6 -5 1 -5 -13z"/>
<path d="M3383 133 c9 -2 23 -2 30 0 6 3 -1 5 -18 5 -16 0 -22 -2 -12 -5z"/>
<path d="M1260 127 c0 -2 15 -16 33 -33 l32 -29 -29 33 c-28 30 -36 37 -36 29z"/>
<path d="M3121 84 c1 -21 5 -50 9 -64 5 -16 6 -2 3 35 -7 69 -13 86 -12 29z"/>
<path d="M1390 106 c0 -2 8 -10 18 -17 15 -13 16 -12 3 4 -13 16 -21 21 -21
13z"/>
<path d="M2827 97 c-3 -8 -1 -20 4 -28 6 -10 9 -7 9 14 0 29 -5 35 -13 14z"/>
<path d="M1010 86 c0 -11 40 -86 45 -86 3 0 -4 19 -16 43 -23 45 -29 54 -29
43z"/>
<path d="M3022 40 c0 -19 2 -27 5 -17 2 9 2 25 0 35 -3 9 -5 1 -5 -18z"/>
<path d="M2831 40 c0 -8 4 -22 9 -30 12 -18 12 -2 0 25 -6 13 -9 15 -9 5z"/>
<path d="M446 29 c3 -6 0 -15 -7 -20 -11 -7 -11 -9 2 -9 9 0 18 3 22 6 8 8 -3
34 -15 34 -5 0 -6 -5 -2 -11z"/>
<path d="M1480 20 c8 -5 20 -10 25 -10 6 0 3 5 -5 10 -8 5 -19 10 -25 10 -5 0
-3 -5 5 -10z"/>
</g>
</svg>
